<mxfile host="app.diagrams.net" agent="Mozilla/5.0 (Windows NT 10.0; Win64; x64) AppleWebKit/537.36 (KHTML, like Gecko) Chrome/133.0.0.0 Safari/537.36" version="26.1.0">
  <diagram name="Puslapis-1" id="v5v4uFpCPzshZkrhh1YO">
    <mxGraphModel dx="2056" dy="1666" grid="1" gridSize="10" guides="1" tooltips="1" connect="1" arrows="1" fold="1" page="1" pageScale="1" pageWidth="827" pageHeight="1169" math="0" shadow="0">
      <root>
        <mxCell id="0" />
        <mxCell id="1" parent="0" />
        <mxCell id="IdVh_bVHWKS3vvw1Y_2o-1" value="" style="fontStyle=1;align=center;verticalAlign=middle;childLayout=stackLayout;horizontal=1;horizontalStack=0;resizeParent=1;resizeParentMax=0;resizeLast=0;marginBottom=0;" vertex="1" parent="1">
          <mxGeometry x="430" y="50" width="360" height="134" as="geometry" />
        </mxCell>
        <mxCell id="IdVh_bVHWKS3vvw1Y_2o-2" value="Users" style="html=1;align=center;spacing=0;verticalAlign=middle;strokeColor=none;fillColor=none;whiteSpace=wrap;fontStyle=1;" vertex="1" parent="IdVh_bVHWKS3vvw1Y_2o-1">
          <mxGeometry width="360" height="20" as="geometry" />
        </mxCell>
        <mxCell id="IdVh_bVHWKS3vvw1Y_2o-3" value="" style="line;strokeWidth=0.25;fillColor=none;align=left;verticalAlign=middle;spacingTop=-1;spacingLeft=3;spacingRight=3;rotatable=0;labelPosition=right;points=[];portConstraint=eastwest;" vertex="1" parent="IdVh_bVHWKS3vvw1Y_2o-1">
          <mxGeometry y="20" width="360" height="8" as="geometry" />
        </mxCell>
        <mxCell id="IdVh_bVHWKS3vvw1Y_2o-5" value="ID&lt;span style=&quot;white-space: pre;&quot;&gt;&#x9;&lt;span style=&quot;white-space: pre;&quot;&gt;&#x9;&lt;/span&gt;&lt;span style=&quot;white-space: pre;&quot;&gt;&#x9;&lt;span style=&quot;white-space: pre;&quot;&gt;&#x9;&lt;/span&gt;&lt;/span&gt;&lt;/span&gt;int&lt;span style=&quot;white-space: pre;&quot;&gt;&#x9;&lt;span style=&quot;white-space: pre;&quot;&gt;&#x9;&lt;/span&gt;&lt;span style=&quot;white-space: pre;&quot;&gt;&#x9;&lt;/span&gt;&lt;/span&gt;PK" style="html=1;align=left;spacing=0;spacingLeft=10;verticalAlign=middle;strokeColor=none;fillColor=none;whiteSpace=wrap;" vertex="1" parent="IdVh_bVHWKS3vvw1Y_2o-1">
          <mxGeometry y="28" width="360" height="16" as="geometry" />
        </mxCell>
        <mxCell id="IdVh_bVHWKS3vvw1Y_2o-224" value="username&lt;span style=&quot;white-space: pre;&quot;&gt;&#x9;&lt;span style=&quot;white-space: pre;&quot;&gt;&#x9;&lt;/span&gt;&lt;/span&gt;varchar(30)&lt;span style=&quot;white-space: pre;&quot;&gt;&#x9;&lt;/span&gt;UNIQUE, NOT NULL" style="html=1;align=left;spacing=0;spacingLeft=10;verticalAlign=middle;strokeColor=none;fillColor=none;whiteSpace=wrap;" vertex="1" parent="IdVh_bVHWKS3vvw1Y_2o-1">
          <mxGeometry y="44" width="360" height="16" as="geometry" />
        </mxCell>
        <mxCell id="IdVh_bVHWKS3vvw1Y_2o-225" value="email&lt;span style=&quot;white-space: pre;&quot;&gt;&#x9;&lt;/span&gt;&lt;span style=&quot;white-space: pre;&quot;&gt;&#x9;&lt;span style=&quot;white-space: pre;&quot;&gt;&#x9;&lt;/span&gt;&lt;/span&gt;varchar(40)&lt;span style=&quot;white-space: pre;&quot;&gt;&#x9;&lt;/span&gt;UNIQUE, NOT NULL" style="html=1;align=left;spacing=0;spacingLeft=10;verticalAlign=middle;strokeColor=none;fillColor=none;whiteSpace=wrap;" vertex="1" parent="IdVh_bVHWKS3vvw1Y_2o-1">
          <mxGeometry y="60" width="360" height="16" as="geometry" />
        </mxCell>
        <mxCell id="IdVh_bVHWKS3vvw1Y_2o-226" value="password &lt;span style=&quot;white-space: pre;&quot;&gt;&#x9;&lt;span style=&quot;white-space: pre;&quot;&gt;&#x9;&lt;/span&gt;&lt;/span&gt;varchar(40)&lt;span style=&quot;white-space: pre;&quot;&gt;&#x9;&lt;/span&gt;NOT NULL" style="html=1;align=left;spacing=0;spacingLeft=10;verticalAlign=middle;strokeColor=none;fillColor=none;whiteSpace=wrap;" vertex="1" parent="IdVh_bVHWKS3vvw1Y_2o-1">
          <mxGeometry y="76" width="360" height="16" as="geometry" />
        </mxCell>
        <mxCell id="IdVh_bVHWKS3vvw1Y_2o-227" value="registration_Date&lt;span style=&quot;white-space: pre;&quot;&gt;&#x9;&lt;/span&gt;datetime&lt;span style=&quot;white-space: pre;&quot;&gt;&#x9;&lt;/span&gt;&lt;span style=&quot;white-space: pre;&quot;&gt;&#x9;&lt;/span&gt;DEFAULT NOW(), NOT NULL" style="html=1;align=left;spacing=0;spacingLeft=10;verticalAlign=middle;strokeColor=none;fillColor=none;whiteSpace=wrap;" vertex="1" parent="IdVh_bVHWKS3vvw1Y_2o-1">
          <mxGeometry y="92" width="360" height="16" as="geometry" />
        </mxCell>
        <mxCell id="IdVh_bVHWKS3vvw1Y_2o-228" value="last_Login&lt;span style=&quot;white-space: pre;&quot;&gt;&#x9;&lt;/span&gt;&lt;span style=&quot;white-space: pre;&quot;&gt;&#x9;&lt;/span&gt;datetime&lt;span style=&quot;white-space: pre;&quot;&gt;&#x9;&lt;/span&gt;&lt;span style=&quot;white-space: pre;&quot;&gt;&#x9;&lt;/span&gt;" style="html=1;align=left;spacing=0;spacingLeft=10;verticalAlign=middle;strokeColor=none;fillColor=none;whiteSpace=wrap;" vertex="1" parent="IdVh_bVHWKS3vvw1Y_2o-1">
          <mxGeometry y="108" width="360" height="16" as="geometry" />
        </mxCell>
        <mxCell id="IdVh_bVHWKS3vvw1Y_2o-6" value="" style="html=1;align=left;spacing=0;spacingLeft=10;verticalAlign=middle;strokeColor=none;fillColor=none;whiteSpace=wrap;" vertex="1" parent="IdVh_bVHWKS3vvw1Y_2o-1">
          <mxGeometry y="124" width="360" height="10" as="geometry" />
        </mxCell>
        <mxCell id="IdVh_bVHWKS3vvw1Y_2o-12" value="" style="fontStyle=1;align=center;verticalAlign=middle;childLayout=stackLayout;horizontal=1;horizontalStack=0;resizeParent=1;resizeParentMax=0;resizeLast=0;marginBottom=0;" vertex="1" parent="1">
          <mxGeometry x="110" y="340" width="360" height="102" as="geometry" />
        </mxCell>
        <mxCell id="IdVh_bVHWKS3vvw1Y_2o-13" value="Posts" style="html=1;align=center;spacing=0;verticalAlign=middle;strokeColor=none;fillColor=none;whiteSpace=wrap;fontStyle=1;" vertex="1" parent="IdVh_bVHWKS3vvw1Y_2o-12">
          <mxGeometry width="360" height="20" as="geometry" />
        </mxCell>
        <mxCell id="IdVh_bVHWKS3vvw1Y_2o-14" value="" style="line;strokeWidth=0.25;fillColor=none;align=left;verticalAlign=middle;spacingTop=-1;spacingLeft=3;spacingRight=3;rotatable=0;labelPosition=right;points=[];portConstraint=eastwest;" vertex="1" parent="IdVh_bVHWKS3vvw1Y_2o-12">
          <mxGeometry y="20" width="360" height="8" as="geometry" />
        </mxCell>
        <mxCell id="IdVh_bVHWKS3vvw1Y_2o-15" value="ID&lt;span style=&quot;white-space: pre;&quot;&gt;&#x9;&lt;span style=&quot;white-space: pre;&quot;&gt;&#x9;&lt;/span&gt;&lt;span style=&quot;white-space: pre;&quot;&gt;&#x9;&lt;/span&gt;&lt;/span&gt;int&lt;span style=&quot;white-space: pre;&quot;&gt;&#x9;&lt;span style=&quot;white-space: pre;&quot;&gt;&#x9;&lt;/span&gt;&lt;span style=&quot;white-space: pre;&quot;&gt;&#x9;&lt;/span&gt;&lt;/span&gt;PK" style="html=1;align=left;spacing=0;spacingLeft=10;verticalAlign=middle;strokeColor=none;fillColor=none;whiteSpace=wrap;" vertex="1" parent="IdVh_bVHWKS3vvw1Y_2o-12">
          <mxGeometry y="28" width="360" height="16" as="geometry" />
        </mxCell>
        <mxCell id="IdVh_bVHWKS3vvw1Y_2o-229" value="content&lt;span style=&quot;white-space: pre;&quot;&gt;&#x9;&lt;/span&gt;&lt;span style=&quot;white-space: pre;&quot;&gt;&#x9;&lt;/span&gt;varchar(1000)&lt;span style=&quot;white-space: pre;&quot;&gt;&#x9;N&lt;/span&gt;OT NULL" style="html=1;align=left;spacing=0;spacingLeft=10;verticalAlign=middle;strokeColor=none;fillColor=none;whiteSpace=wrap;" vertex="1" parent="IdVh_bVHWKS3vvw1Y_2o-12">
          <mxGeometry y="44" width="360" height="16" as="geometry" />
        </mxCell>
        <mxCell id="IdVh_bVHWKS3vvw1Y_2o-230" value="created_Date&lt;span style=&quot;white-space: pre;&quot;&gt;&#x9;&lt;/span&gt;datetime&lt;span style=&quot;white-space: pre;&quot;&gt;&#x9;&lt;/span&gt;&lt;span style=&quot;white-space: pre;&quot;&gt;&#x9;&lt;/span&gt;DEFAULT NOW(), NOT NULL" style="html=1;align=left;spacing=0;spacingLeft=10;verticalAlign=middle;strokeColor=none;fillColor=none;whiteSpace=wrap;" vertex="1" parent="IdVh_bVHWKS3vvw1Y_2o-12">
          <mxGeometry y="60" width="360" height="16" as="geometry" />
        </mxCell>
        <mxCell id="IdVh_bVHWKS3vvw1Y_2o-216" value="Users_ID&lt;span style=&quot;white-space: pre;&quot;&gt;&#x9;&lt;span style=&quot;white-space: pre;&quot;&gt;&#x9;&lt;/span&gt;&lt;/span&gt;int&lt;span style=&quot;white-space: pre;&quot;&gt;&#x9;&lt;span style=&quot;white-space: pre;&quot;&gt;&#x9;&lt;/span&gt;&lt;span style=&quot;white-space: pre;&quot;&gt;&#x9;&lt;/span&gt;&lt;/span&gt;FK" style="html=1;align=left;spacing=0;spacingLeft=10;verticalAlign=middle;strokeColor=none;fillColor=none;whiteSpace=wrap;" vertex="1" parent="IdVh_bVHWKS3vvw1Y_2o-12">
          <mxGeometry y="76" width="360" height="16" as="geometry" />
        </mxCell>
        <mxCell id="IdVh_bVHWKS3vvw1Y_2o-16" value="" style="html=1;align=left;spacing=0;spacingLeft=10;verticalAlign=middle;strokeColor=none;fillColor=none;whiteSpace=wrap;" vertex="1" parent="IdVh_bVHWKS3vvw1Y_2o-12">
          <mxGeometry y="92" width="360" height="10" as="geometry" />
        </mxCell>
        <mxCell id="IdVh_bVHWKS3vvw1Y_2o-29" value="" style="fontStyle=1;align=center;verticalAlign=middle;childLayout=stackLayout;horizontal=1;horizontalStack=0;resizeParent=1;resizeParentMax=0;resizeLast=0;marginBottom=0;" vertex="1" parent="1">
          <mxGeometry x="-260" y="190" width="340" height="118" as="geometry" />
        </mxCell>
        <mxCell id="IdVh_bVHWKS3vvw1Y_2o-30" value="Comments" style="html=1;align=center;spacing=0;verticalAlign=middle;strokeColor=none;fillColor=none;whiteSpace=wrap;fontStyle=1;" vertex="1" parent="IdVh_bVHWKS3vvw1Y_2o-29">
          <mxGeometry width="340" height="20" as="geometry" />
        </mxCell>
        <mxCell id="IdVh_bVHWKS3vvw1Y_2o-31" value="" style="line;strokeWidth=0.25;fillColor=none;align=left;verticalAlign=middle;spacingTop=-1;spacingLeft=3;spacingRight=3;rotatable=0;labelPosition=right;points=[];portConstraint=eastwest;" vertex="1" parent="IdVh_bVHWKS3vvw1Y_2o-29">
          <mxGeometry y="20" width="340" height="8" as="geometry" />
        </mxCell>
        <mxCell id="IdVh_bVHWKS3vvw1Y_2o-32" value="ID&lt;span style=&quot;white-space: pre;&quot;&gt;&#x9;&lt;span style=&quot;white-space: pre;&quot;&gt;&#x9;&lt;/span&gt;&lt;span style=&quot;white-space: pre;&quot;&gt;&#x9;&lt;/span&gt;&lt;/span&gt;int&lt;span style=&quot;white-space: pre;&quot;&gt;&#x9;&lt;span style=&quot;white-space: pre;&quot;&gt;&#x9;&lt;/span&gt;&lt;span style=&quot;white-space: pre;&quot;&gt;&#x9;&lt;/span&gt;&lt;/span&gt;PK" style="html=1;align=left;spacing=0;spacingLeft=10;verticalAlign=middle;strokeColor=none;fillColor=none;whiteSpace=wrap;" vertex="1" parent="IdVh_bVHWKS3vvw1Y_2o-29">
          <mxGeometry y="28" width="340" height="16" as="geometry" />
        </mxCell>
        <mxCell id="IdVh_bVHWKS3vvw1Y_2o-231" value="content&lt;span style=&quot;white-space: pre;&quot;&gt;&#x9;&lt;/span&gt;&lt;span style=&quot;white-space: pre;&quot;&gt;&#x9;&lt;/span&gt;varchar(1000)&lt;span style=&quot;white-space: pre;&quot;&gt;&#x9;N&lt;/span&gt;OT NULL" style="html=1;align=left;spacing=0;spacingLeft=10;verticalAlign=middle;strokeColor=none;fillColor=none;whiteSpace=wrap;" vertex="1" parent="IdVh_bVHWKS3vvw1Y_2o-29">
          <mxGeometry y="44" width="340" height="16" as="geometry" />
        </mxCell>
        <mxCell id="IdVh_bVHWKS3vvw1Y_2o-232" value="created_Date&lt;span style=&quot;white-space: pre;&quot;&gt;&#x9;&lt;/span&gt;datetime&lt;span style=&quot;white-space: pre;&quot;&gt;&#x9;&lt;/span&gt;&lt;span style=&quot;white-space: pre;&quot;&gt;&#x9;&lt;/span&gt;DEFAULT NOW(), NOT NULL" style="html=1;align=left;spacing=0;spacingLeft=10;verticalAlign=middle;strokeColor=none;fillColor=none;whiteSpace=wrap;" vertex="1" parent="IdVh_bVHWKS3vvw1Y_2o-29">
          <mxGeometry y="60" width="340" height="16" as="geometry" />
        </mxCell>
        <mxCell id="IdVh_bVHWKS3vvw1Y_2o-212" value="Users_ID&lt;span style=&quot;white-space: pre;&quot;&gt;&#x9;&lt;span style=&quot;white-space: pre;&quot;&gt;&#x9;&lt;/span&gt;&lt;/span&gt;int&lt;span style=&quot;white-space: pre;&quot;&gt;&#x9;&lt;span style=&quot;white-space: pre;&quot;&gt;&#x9;&lt;/span&gt;&lt;span style=&quot;white-space: pre;&quot;&gt;&#x9;&lt;/span&gt;&lt;/span&gt;FK" style="html=1;align=left;spacing=0;spacingLeft=10;verticalAlign=middle;strokeColor=none;fillColor=none;whiteSpace=wrap;" vertex="1" parent="IdVh_bVHWKS3vvw1Y_2o-29">
          <mxGeometry y="76" width="340" height="16" as="geometry" />
        </mxCell>
        <mxCell id="IdVh_bVHWKS3vvw1Y_2o-213" value="Posts_ID&lt;span style=&quot;white-space: pre;&quot;&gt;&#x9;&lt;span style=&quot;white-space: pre;&quot;&gt;&#x9;&lt;/span&gt;&lt;/span&gt;int&lt;span style=&quot;white-space: pre;&quot;&gt;&#x9;&lt;span style=&quot;white-space: pre;&quot;&gt;&#x9;&lt;/span&gt;&lt;span style=&quot;white-space: pre;&quot;&gt;&#x9;&lt;/span&gt;&lt;/span&gt;FK" style="html=1;align=left;spacing=0;spacingLeft=10;verticalAlign=middle;strokeColor=none;fillColor=none;whiteSpace=wrap;" vertex="1" parent="IdVh_bVHWKS3vvw1Y_2o-29">
          <mxGeometry y="92" width="340" height="16" as="geometry" />
        </mxCell>
        <mxCell id="IdVh_bVHWKS3vvw1Y_2o-33" value="" style="html=1;align=left;spacing=0;spacingLeft=10;verticalAlign=middle;strokeColor=none;fillColor=none;whiteSpace=wrap;" vertex="1" parent="IdVh_bVHWKS3vvw1Y_2o-29">
          <mxGeometry y="108" width="340" height="10" as="geometry" />
        </mxCell>
        <mxCell id="IdVh_bVHWKS3vvw1Y_2o-40" value="" style="fontStyle=1;align=center;verticalAlign=middle;childLayout=stackLayout;horizontal=1;horizontalStack=0;resizeParent=1;resizeParentMax=0;resizeLast=0;marginBottom=0;" vertex="1" parent="1">
          <mxGeometry x="150" y="210" width="340" height="102" as="geometry" />
        </mxCell>
        <mxCell id="IdVh_bVHWKS3vvw1Y_2o-41" value="Likes" style="html=1;align=center;spacing=0;verticalAlign=middle;strokeColor=none;fillColor=none;whiteSpace=wrap;fontStyle=1;" vertex="1" parent="IdVh_bVHWKS3vvw1Y_2o-40">
          <mxGeometry width="340" height="20" as="geometry" />
        </mxCell>
        <mxCell id="IdVh_bVHWKS3vvw1Y_2o-42" value="" style="line;strokeWidth=0.25;fillColor=none;align=left;verticalAlign=middle;spacingTop=-1;spacingLeft=3;spacingRight=3;rotatable=0;labelPosition=right;points=[];portConstraint=eastwest;" vertex="1" parent="IdVh_bVHWKS3vvw1Y_2o-40">
          <mxGeometry y="20" width="340" height="8" as="geometry" />
        </mxCell>
        <mxCell id="IdVh_bVHWKS3vvw1Y_2o-43" value="ID&lt;span style=&quot;white-space: pre;&quot;&gt;&#x9;&lt;/span&gt;int&lt;span style=&quot;white-space: pre;&quot;&gt;&#x9;&lt;/span&gt;PK" style="html=1;align=left;spacing=0;spacingLeft=10;verticalAlign=middle;strokeColor=none;fillColor=none;whiteSpace=wrap;" vertex="1" parent="IdVh_bVHWKS3vvw1Y_2o-40">
          <mxGeometry y="28" width="340" height="16" as="geometry" />
        </mxCell>
        <mxCell id="IdVh_bVHWKS3vvw1Y_2o-236" value="created_Date&lt;span style=&quot;white-space: pre;&quot;&gt;&#x9;&lt;/span&gt;datetime&lt;span style=&quot;white-space: pre;&quot;&gt;&#x9;&lt;/span&gt;&lt;span style=&quot;white-space: pre;&quot;&gt;&#x9;&lt;/span&gt;DEFAULT NOW(), NOT NULL" style="html=1;align=left;spacing=0;spacingLeft=10;verticalAlign=middle;strokeColor=none;fillColor=none;whiteSpace=wrap;" vertex="1" parent="IdVh_bVHWKS3vvw1Y_2o-40">
          <mxGeometry y="44" width="340" height="16" as="geometry" />
        </mxCell>
        <mxCell id="IdVh_bVHWKS3vvw1Y_2o-214" value="Users_ID&lt;span style=&quot;white-space: pre;&quot;&gt;&#x9;&lt;span style=&quot;white-space: pre;&quot;&gt;&#x9;&lt;/span&gt;&lt;/span&gt;int&lt;span style=&quot;white-space: pre;&quot;&gt;&#x9;&lt;/span&gt;FK" style="html=1;align=left;spacing=0;spacingLeft=10;verticalAlign=middle;strokeColor=none;fillColor=none;whiteSpace=wrap;" vertex="1" parent="IdVh_bVHWKS3vvw1Y_2o-40">
          <mxGeometry y="60" width="340" height="16" as="geometry" />
        </mxCell>
        <mxCell id="IdVh_bVHWKS3vvw1Y_2o-215" value="Posts_ID&lt;span style=&quot;white-space: pre;&quot;&gt;&#x9;&lt;span style=&quot;white-space: pre;&quot;&gt;&#x9;&lt;/span&gt;&lt;/span&gt;int&lt;span style=&quot;white-space: pre;&quot;&gt;&#x9;&lt;/span&gt;FK" style="html=1;align=left;spacing=0;spacingLeft=10;verticalAlign=middle;strokeColor=none;fillColor=none;whiteSpace=wrap;" vertex="1" parent="IdVh_bVHWKS3vvw1Y_2o-40">
          <mxGeometry y="76" width="340" height="16" as="geometry" />
        </mxCell>
        <mxCell id="IdVh_bVHWKS3vvw1Y_2o-44" value="" style="html=1;align=left;spacing=0;spacingLeft=10;verticalAlign=middle;strokeColor=none;fillColor=none;whiteSpace=wrap;" vertex="1" parent="IdVh_bVHWKS3vvw1Y_2o-40">
          <mxGeometry y="92" width="340" height="10" as="geometry" />
        </mxCell>
        <mxCell id="IdVh_bVHWKS3vvw1Y_2o-51" value="" style="fontStyle=1;align=center;verticalAlign=middle;childLayout=stackLayout;horizontal=1;horizontalStack=0;resizeParent=1;resizeParentMax=0;resizeLast=0;marginBottom=0;" vertex="1" parent="1">
          <mxGeometry x="-660" y="210" width="360" height="102" as="geometry" />
        </mxCell>
        <mxCell id="IdVh_bVHWKS3vvw1Y_2o-52" value="Shares" style="html=1;align=center;spacing=0;verticalAlign=middle;strokeColor=none;fillColor=none;whiteSpace=wrap;fontStyle=1;" vertex="1" parent="IdVh_bVHWKS3vvw1Y_2o-51">
          <mxGeometry width="360" height="20" as="geometry" />
        </mxCell>
        <mxCell id="IdVh_bVHWKS3vvw1Y_2o-53" value="" style="line;strokeWidth=0.25;fillColor=none;align=left;verticalAlign=middle;spacingTop=-1;spacingLeft=3;spacingRight=3;rotatable=0;labelPosition=right;points=[];portConstraint=eastwest;" vertex="1" parent="IdVh_bVHWKS3vvw1Y_2o-51">
          <mxGeometry y="20" width="360" height="8" as="geometry" />
        </mxCell>
        <mxCell id="IdVh_bVHWKS3vvw1Y_2o-54" value="ID&lt;span style=&quot;white-space: pre;&quot;&gt;&#x9;&lt;/span&gt;int&lt;span style=&quot;white-space: pre;&quot;&gt;&#x9;&lt;/span&gt;PK" style="html=1;align=left;spacing=0;spacingLeft=10;verticalAlign=middle;strokeColor=none;fillColor=none;whiteSpace=wrap;" vertex="1" parent="IdVh_bVHWKS3vvw1Y_2o-51">
          <mxGeometry y="28" width="360" height="16" as="geometry" />
        </mxCell>
        <mxCell id="IdVh_bVHWKS3vvw1Y_2o-263" value="shared_Date&lt;span style=&quot;white-space: pre;&quot;&gt;&#x9;&lt;/span&gt;datetime&lt;span style=&quot;white-space: pre;&quot;&gt;&#x9;&lt;/span&gt;&lt;span style=&quot;white-space: pre;&quot;&gt;&#x9;&lt;/span&gt;DEFAULT NOW(), NOT NULL" style="html=1;align=left;spacing=0;spacingLeft=10;verticalAlign=middle;strokeColor=none;fillColor=none;whiteSpace=wrap;" vertex="1" parent="IdVh_bVHWKS3vvw1Y_2o-51">
          <mxGeometry y="44" width="360" height="16" as="geometry" />
        </mxCell>
        <mxCell id="IdVh_bVHWKS3vvw1Y_2o-206" value="Users_ID&lt;span style=&quot;white-space: pre;&quot;&gt;&#x9;&lt;span style=&quot;white-space: pre;&quot;&gt;&#x9;&lt;/span&gt;&lt;/span&gt;int&lt;span style=&quot;white-space: pre;&quot;&gt;&#x9;&lt;/span&gt;FK" style="html=1;align=left;spacing=0;spacingLeft=10;verticalAlign=middle;strokeColor=none;fillColor=none;whiteSpace=wrap;" vertex="1" parent="IdVh_bVHWKS3vvw1Y_2o-51">
          <mxGeometry y="60" width="360" height="16" as="geometry" />
        </mxCell>
        <mxCell id="IdVh_bVHWKS3vvw1Y_2o-207" value="Posts_ID&lt;span style=&quot;white-space: pre;&quot;&gt;&#x9;&lt;span style=&quot;white-space: pre;&quot;&gt;&#x9;&lt;/span&gt;&lt;/span&gt;int&lt;span style=&quot;white-space: pre;&quot;&gt;&#x9;&lt;/span&gt;FK" style="html=1;align=left;spacing=0;spacingLeft=10;verticalAlign=middle;strokeColor=none;fillColor=none;whiteSpace=wrap;" vertex="1" parent="IdVh_bVHWKS3vvw1Y_2o-51">
          <mxGeometry y="76" width="360" height="16" as="geometry" />
        </mxCell>
        <mxCell id="IdVh_bVHWKS3vvw1Y_2o-55" value="" style="html=1;align=left;spacing=0;spacingLeft=10;verticalAlign=middle;strokeColor=none;fillColor=none;whiteSpace=wrap;" vertex="1" parent="IdVh_bVHWKS3vvw1Y_2o-51">
          <mxGeometry y="92" width="360" height="10" as="geometry" />
        </mxCell>
        <mxCell id="IdVh_bVHWKS3vvw1Y_2o-56" value="" style="fontStyle=1;align=center;verticalAlign=middle;childLayout=stackLayout;horizontal=1;horizontalStack=0;resizeParent=1;resizeParentMax=0;resizeLast=0;marginBottom=0;" vertex="1" parent="1">
          <mxGeometry x="850" y="296" width="360" height="86" as="geometry" />
        </mxCell>
        <mxCell id="IdVh_bVHWKS3vvw1Y_2o-57" value="&lt;strong&gt;Hashtags&lt;/strong&gt;" style="html=1;align=center;spacing=0;verticalAlign=middle;strokeColor=none;fillColor=none;whiteSpace=wrap;fontStyle=1;" vertex="1" parent="IdVh_bVHWKS3vvw1Y_2o-56">
          <mxGeometry width="360" height="20" as="geometry" />
        </mxCell>
        <mxCell id="IdVh_bVHWKS3vvw1Y_2o-58" value="" style="line;strokeWidth=0.25;fillColor=none;align=left;verticalAlign=middle;spacingTop=-1;spacingLeft=3;spacingRight=3;rotatable=0;labelPosition=right;points=[];portConstraint=eastwest;" vertex="1" parent="IdVh_bVHWKS3vvw1Y_2o-56">
          <mxGeometry y="20" width="360" height="8" as="geometry" />
        </mxCell>
        <mxCell id="IdVh_bVHWKS3vvw1Y_2o-59" value="ID&lt;span style=&quot;white-space: pre;&quot;&gt;&#x9;&lt;span style=&quot;white-space: pre;&quot;&gt;&#x9;&lt;/span&gt;&lt;span style=&quot;white-space: pre;&quot;&gt;&#x9;&lt;/span&gt;&lt;/span&gt;int&lt;span style=&quot;white-space: pre;&quot;&gt;&#x9;&lt;span style=&quot;white-space: pre;&quot;&gt;&#x9;&lt;/span&gt;&lt;span style=&quot;white-space: pre;&quot;&gt;&#x9;&lt;/span&gt;&lt;/span&gt;PK" style="html=1;align=left;spacing=0;spacingLeft=10;verticalAlign=middle;strokeColor=none;fillColor=none;whiteSpace=wrap;" vertex="1" parent="IdVh_bVHWKS3vvw1Y_2o-56">
          <mxGeometry y="28" width="360" height="16" as="geometry" />
        </mxCell>
        <mxCell id="IdVh_bVHWKS3vvw1Y_2o-242" value="tTag&lt;span style=&quot;white-space: pre;&quot;&gt;&#x9;&lt;span style=&quot;white-space: pre;&quot;&gt;&#x9;&lt;/span&gt;&lt;span style=&quot;white-space: pre;&quot;&gt;&#x9;&lt;/span&gt;&lt;/span&gt;varchar(30)&lt;span style=&quot;white-space: pre;&quot;&gt;&#x9;&lt;/span&gt;UNIQUE, NOT NULL" style="html=1;align=left;spacing=0;spacingLeft=10;verticalAlign=middle;strokeColor=none;fillColor=none;whiteSpace=wrap;" vertex="1" parent="IdVh_bVHWKS3vvw1Y_2o-56">
          <mxGeometry y="44" width="360" height="16" as="geometry" />
        </mxCell>
        <mxCell id="IdVh_bVHWKS3vvw1Y_2o-243" value="created_Date&lt;span style=&quot;white-space: pre;&quot;&gt;&#x9;&lt;/span&gt;datetime&lt;span style=&quot;white-space: pre;&quot;&gt;&#x9;&lt;/span&gt;&lt;span style=&quot;white-space: pre;&quot;&gt;&#x9;&lt;/span&gt;DEFAULT NOW(), NOT NULL" style="html=1;align=left;spacing=0;spacingLeft=10;verticalAlign=middle;strokeColor=none;fillColor=none;whiteSpace=wrap;" vertex="1" parent="IdVh_bVHWKS3vvw1Y_2o-56">
          <mxGeometry y="60" width="360" height="16" as="geometry" />
        </mxCell>
        <mxCell id="IdVh_bVHWKS3vvw1Y_2o-60" value="" style="html=1;align=left;spacing=0;spacingLeft=10;verticalAlign=middle;strokeColor=none;fillColor=none;whiteSpace=wrap;" vertex="1" parent="IdVh_bVHWKS3vvw1Y_2o-56">
          <mxGeometry y="76" width="360" height="10" as="geometry" />
        </mxCell>
        <mxCell id="IdVh_bVHWKS3vvw1Y_2o-61" value="" style="fontStyle=1;align=center;verticalAlign=middle;childLayout=stackLayout;horizontal=1;horizontalStack=0;resizeParent=1;resizeParentMax=0;resizeLast=0;marginBottom=0;" vertex="1" parent="1">
          <mxGeometry x="-90" y="-170" width="170" height="86" as="geometry" />
        </mxCell>
        <mxCell id="IdVh_bVHWKS3vvw1Y_2o-62" value="&lt;strong&gt;Locations&lt;/strong&gt;" style="html=1;align=center;spacing=0;verticalAlign=middle;strokeColor=none;fillColor=none;whiteSpace=wrap;fontStyle=1;" vertex="1" parent="IdVh_bVHWKS3vvw1Y_2o-61">
          <mxGeometry width="170" height="20" as="geometry" />
        </mxCell>
        <mxCell id="IdVh_bVHWKS3vvw1Y_2o-63" value="" style="line;strokeWidth=0.25;fillColor=none;align=left;verticalAlign=middle;spacingTop=-1;spacingLeft=3;spacingRight=3;rotatable=0;labelPosition=right;points=[];portConstraint=eastwest;" vertex="1" parent="IdVh_bVHWKS3vvw1Y_2o-61">
          <mxGeometry y="20" width="170" height="8" as="geometry" />
        </mxCell>
        <mxCell id="IdVh_bVHWKS3vvw1Y_2o-64" value="ID&lt;span style=&quot;white-space: pre;&quot;&gt;&#x9;&lt;span style=&quot;white-space: pre;&quot;&gt;&#x9;&lt;/span&gt;&lt;/span&gt;int&lt;span style=&quot;white-space: pre;&quot;&gt;&#x9;&lt;span style=&quot;white-space: pre;&quot;&gt;&#x9;&lt;/span&gt;&lt;span style=&quot;white-space: pre;&quot;&gt;&#x9;&lt;/span&gt;&lt;/span&gt;PK" style="html=1;align=left;spacing=0;spacingLeft=10;verticalAlign=middle;strokeColor=none;fillColor=none;whiteSpace=wrap;" vertex="1" parent="IdVh_bVHWKS3vvw1Y_2o-61">
          <mxGeometry y="28" width="170" height="16" as="geometry" />
        </mxCell>
        <mxCell id="IdVh_bVHWKS3vvw1Y_2o-244" value="city&lt;span style=&quot;white-space: pre;&quot;&gt;&#x9;&lt;span style=&quot;white-space: pre;&quot;&gt;&#x9;&lt;/span&gt;&lt;/span&gt;varchar(30)" style="html=1;align=left;spacing=0;spacingLeft=10;verticalAlign=middle;strokeColor=none;fillColor=none;whiteSpace=wrap;" vertex="1" parent="IdVh_bVHWKS3vvw1Y_2o-61">
          <mxGeometry y="44" width="170" height="16" as="geometry" />
        </mxCell>
        <mxCell id="IdVh_bVHWKS3vvw1Y_2o-245" value="country&lt;span style=&quot;white-space: pre;&quot;&gt;&#x9;&lt;/span&gt;varchar(30)" style="html=1;align=left;spacing=0;spacingLeft=10;verticalAlign=middle;strokeColor=none;fillColor=none;whiteSpace=wrap;" vertex="1" parent="IdVh_bVHWKS3vvw1Y_2o-61">
          <mxGeometry y="60" width="170" height="16" as="geometry" />
        </mxCell>
        <mxCell id="IdVh_bVHWKS3vvw1Y_2o-65" value="" style="html=1;align=left;spacing=0;spacingLeft=10;verticalAlign=middle;strokeColor=none;fillColor=none;whiteSpace=wrap;" vertex="1" parent="IdVh_bVHWKS3vvw1Y_2o-61">
          <mxGeometry y="76" width="170" height="10" as="geometry" />
        </mxCell>
        <mxCell id="IdVh_bVHWKS3vvw1Y_2o-73" value="" style="fontStyle=1;align=center;verticalAlign=middle;childLayout=stackLayout;horizontal=1;horizontalStack=0;resizeParent=1;resizeParentMax=0;resizeLast=0;marginBottom=0;" vertex="1" parent="1">
          <mxGeometry x="-180" y="10" width="260" height="86" as="geometry" />
        </mxCell>
        <mxCell id="IdVh_bVHWKS3vvw1Y_2o-74" value="Followings" style="html=1;align=center;spacing=0;verticalAlign=middle;strokeColor=none;fillColor=none;whiteSpace=wrap;fontStyle=1;" vertex="1" parent="IdVh_bVHWKS3vvw1Y_2o-73">
          <mxGeometry width="260" height="20" as="geometry" />
        </mxCell>
        <mxCell id="IdVh_bVHWKS3vvw1Y_2o-75" value="" style="line;strokeWidth=0.25;fillColor=none;align=left;verticalAlign=middle;spacingTop=-1;spacingLeft=3;spacingRight=3;rotatable=0;labelPosition=right;points=[];portConstraint=eastwest;" vertex="1" parent="IdVh_bVHWKS3vvw1Y_2o-73">
          <mxGeometry y="20" width="260" height="8" as="geometry" />
        </mxCell>
        <mxCell id="IdVh_bVHWKS3vvw1Y_2o-76" value="ID&lt;span style=&quot;white-space: pre;&quot;&gt;&#x9;&lt;span style=&quot;white-space: pre;&quot;&gt;&#x9;&lt;/span&gt;&lt;span style=&quot;white-space: pre;&quot;&gt;&#x9;&lt;/span&gt;&lt;/span&gt;int&lt;span style=&quot;white-space: pre;&quot;&gt;&#x9;&lt;span style=&quot;white-space: pre;&quot;&gt;&#x9;&lt;/span&gt;&lt;/span&gt;PK" style="html=1;align=left;spacing=0;spacingLeft=10;verticalAlign=middle;strokeColor=none;fillColor=none;whiteSpace=wrap;" vertex="1" parent="IdVh_bVHWKS3vvw1Y_2o-73">
          <mxGeometry y="28" width="260" height="16" as="geometry" />
        </mxCell>
        <mxCell id="IdVh_bVHWKS3vvw1Y_2o-264" value="follow_Status&lt;span style=&quot;white-space: pre;&quot;&gt;&#x9;&lt;/span&gt;bolean&lt;span style=&quot;white-space: pre;&quot;&gt;&#x9;&lt;/span&gt;" style="html=1;align=left;spacing=0;spacingLeft=10;verticalAlign=middle;strokeColor=none;fillColor=none;whiteSpace=wrap;" vertex="1" parent="IdVh_bVHWKS3vvw1Y_2o-73">
          <mxGeometry y="44" width="260" height="16" as="geometry" />
        </mxCell>
        <mxCell id="IdVh_bVHWKS3vvw1Y_2o-265" value="followed_at&lt;span style=&quot;white-space: pre;&quot;&gt;&#x9;&lt;/span&gt;datetime&lt;span style=&quot;white-space: pre;&quot;&gt;&#x9;&lt;/span&gt;NOT NULL" style="html=1;align=left;spacing=0;spacingLeft=10;verticalAlign=middle;strokeColor=none;fillColor=none;whiteSpace=wrap;" vertex="1" parent="IdVh_bVHWKS3vvw1Y_2o-73">
          <mxGeometry y="60" width="260" height="16" as="geometry" />
        </mxCell>
        <mxCell id="IdVh_bVHWKS3vvw1Y_2o-77" value="" style="html=1;align=left;spacing=0;spacingLeft=10;verticalAlign=middle;strokeColor=none;fillColor=none;whiteSpace=wrap;" vertex="1" parent="IdVh_bVHWKS3vvw1Y_2o-73">
          <mxGeometry y="76" width="260" height="10" as="geometry" />
        </mxCell>
        <mxCell id="IdVh_bVHWKS3vvw1Y_2o-78" value="" style="fontStyle=1;align=center;verticalAlign=middle;childLayout=stackLayout;horizontal=1;horizontalStack=0;resizeParent=1;resizeParentMax=0;resizeLast=0;marginBottom=0;" vertex="1" parent="1">
          <mxGeometry x="920" y="140" width="260" height="134" as="geometry" />
        </mxCell>
        <mxCell id="IdVh_bVHWKS3vvw1Y_2o-79" value="&lt;strong&gt;Messages&lt;/strong&gt;" style="html=1;align=center;spacing=0;verticalAlign=middle;strokeColor=none;fillColor=none;whiteSpace=wrap;fontStyle=1;" vertex="1" parent="IdVh_bVHWKS3vvw1Y_2o-78">
          <mxGeometry width="260" height="20" as="geometry" />
        </mxCell>
        <mxCell id="IdVh_bVHWKS3vvw1Y_2o-80" value="" style="line;strokeWidth=0.25;fillColor=none;align=left;verticalAlign=middle;spacingTop=-1;spacingLeft=3;spacingRight=3;rotatable=0;labelPosition=right;points=[];portConstraint=eastwest;" vertex="1" parent="IdVh_bVHWKS3vvw1Y_2o-78">
          <mxGeometry y="20" width="260" height="8" as="geometry" />
        </mxCell>
        <mxCell id="IdVh_bVHWKS3vvw1Y_2o-81" value="ID&lt;span style=&quot;white-space: pre;&quot;&gt;&#x9;&lt;span style=&quot;white-space: pre;&quot;&gt;&#x9;&lt;/span&gt;&lt;span style=&quot;white-space: pre;&quot;&gt;&#x9;&lt;/span&gt;&lt;/span&gt;int&lt;span style=&quot;white-space: pre;&quot;&gt;&#x9;&lt;span style=&quot;white-space: pre;&quot;&gt;&#x9;&lt;/span&gt;&lt;/span&gt;PK" style="html=1;align=left;spacing=0;spacingLeft=10;verticalAlign=middle;strokeColor=none;fillColor=none;whiteSpace=wrap;" vertex="1" parent="IdVh_bVHWKS3vvw1Y_2o-78">
          <mxGeometry y="28" width="260" height="16" as="geometry" />
        </mxCell>
        <mxCell id="IdVh_bVHWKS3vvw1Y_2o-257" value="Content&lt;span style=&quot;white-space: pre;&quot;&gt;&#x9;&lt;span style=&quot;white-space: pre;&quot;&gt;&#x9;&lt;/span&gt;&lt;/span&gt;text&lt;span style=&quot;white-space: pre;&quot;&gt;&#x9;&lt;span style=&quot;white-space: pre;&quot;&gt;&#x9;&lt;/span&gt;&lt;/span&gt;NOT NULL" style="html=1;align=left;spacing=0;spacingLeft=10;verticalAlign=middle;strokeColor=none;fillColor=none;whiteSpace=wrap;" vertex="1" parent="IdVh_bVHWKS3vvw1Y_2o-78">
          <mxGeometry y="44" width="260" height="16" as="geometry" />
        </mxCell>
        <mxCell id="IdVh_bVHWKS3vvw1Y_2o-258" value="sent_Time&lt;span style=&quot;white-space: pre;&quot;&gt;&#x9;&lt;/span&gt;datetime&lt;span style=&quot;white-space: pre;&quot;&gt;&#x9;&lt;/span&gt;NOT NULL" style="html=1;align=left;spacing=0;spacingLeft=10;verticalAlign=middle;strokeColor=none;fillColor=none;whiteSpace=wrap;" vertex="1" parent="IdVh_bVHWKS3vvw1Y_2o-78">
          <mxGeometry y="60" width="260" height="16" as="geometry" />
        </mxCell>
        <mxCell id="IdVh_bVHWKS3vvw1Y_2o-260" value="read_Time&lt;span style=&quot;white-space: pre;&quot;&gt;&#x9;&lt;/span&gt;datetime&lt;span style=&quot;white-space: pre;&quot;&gt;&#x9;&lt;/span&gt;NOT NULL" style="html=1;align=left;spacing=0;spacingLeft=10;verticalAlign=middle;strokeColor=none;fillColor=none;whiteSpace=wrap;" vertex="1" parent="IdVh_bVHWKS3vvw1Y_2o-78">
          <mxGeometry y="76" width="260" height="16" as="geometry" />
        </mxCell>
        <mxCell id="IdVh_bVHWKS3vvw1Y_2o-187" value="Sender_ID&lt;span style=&quot;white-space: pre;&quot;&gt;&#x9;&lt;/span&gt;int&lt;span style=&quot;white-space: pre;&quot;&gt;&#x9;&lt;span style=&quot;white-space: pre;&quot;&gt;&#x9;&lt;/span&gt;&lt;/span&gt;FK" style="html=1;align=left;spacing=0;spacingLeft=10;verticalAlign=middle;strokeColor=none;fillColor=none;whiteSpace=wrap;" vertex="1" parent="IdVh_bVHWKS3vvw1Y_2o-78">
          <mxGeometry y="92" width="260" height="16" as="geometry" />
        </mxCell>
        <mxCell id="IdVh_bVHWKS3vvw1Y_2o-186" value="Receiver_ID&lt;span style=&quot;white-space: pre;&quot;&gt;&#x9;&lt;/span&gt;int&lt;span style=&quot;white-space: pre;&quot;&gt;&#x9;&lt;span style=&quot;white-space: pre;&quot;&gt;&#x9;&lt;/span&gt;&lt;/span&gt;FK" style="html=1;align=left;spacing=0;spacingLeft=10;verticalAlign=middle;strokeColor=none;fillColor=none;whiteSpace=wrap;" vertex="1" parent="IdVh_bVHWKS3vvw1Y_2o-78">
          <mxGeometry y="108" width="260" height="16" as="geometry" />
        </mxCell>
        <mxCell id="IdVh_bVHWKS3vvw1Y_2o-82" value="" style="html=1;align=left;spacing=0;spacingLeft=10;verticalAlign=middle;strokeColor=none;fillColor=none;whiteSpace=wrap;" vertex="1" parent="IdVh_bVHWKS3vvw1Y_2o-78">
          <mxGeometry y="124" width="260" height="10" as="geometry" />
        </mxCell>
        <mxCell id="IdVh_bVHWKS3vvw1Y_2o-83" value="" style="fontStyle=1;align=center;verticalAlign=middle;childLayout=stackLayout;horizontal=1;horizontalStack=0;resizeParent=1;resizeParentMax=0;resizeLast=0;marginBottom=0;" vertex="1" parent="1">
          <mxGeometry x="950" y="10" width="310" height="102" as="geometry" />
        </mxCell>
        <mxCell id="IdVh_bVHWKS3vvw1Y_2o-84" value="&lt;strong&gt;Groups&lt;/strong&gt;" style="html=1;align=center;spacing=0;verticalAlign=middle;strokeColor=none;fillColor=none;whiteSpace=wrap;fontStyle=1;" vertex="1" parent="IdVh_bVHWKS3vvw1Y_2o-83">
          <mxGeometry width="310" height="20" as="geometry" />
        </mxCell>
        <mxCell id="IdVh_bVHWKS3vvw1Y_2o-85" value="" style="line;strokeWidth=0.25;fillColor=none;align=left;verticalAlign=middle;spacingTop=-1;spacingLeft=3;spacingRight=3;rotatable=0;labelPosition=right;points=[];portConstraint=eastwest;" vertex="1" parent="IdVh_bVHWKS3vvw1Y_2o-83">
          <mxGeometry y="20" width="310" height="8" as="geometry" />
        </mxCell>
        <mxCell id="IdVh_bVHWKS3vvw1Y_2o-86" value="ID&lt;span style=&quot;white-space: pre;&quot;&gt;&#x9;&lt;span style=&quot;white-space: pre;&quot;&gt;&#x9;&lt;/span&gt;&lt;span style=&quot;white-space: pre;&quot;&gt;&#x9;&lt;/span&gt;&lt;/span&gt;int&lt;span style=&quot;white-space: pre;&quot;&gt;&#x9;&lt;span style=&quot;white-space: pre;&quot;&gt;&#x9;&lt;/span&gt;&lt;span style=&quot;white-space: pre;&quot;&gt;&#x9;&lt;/span&gt;&lt;/span&gt;PK" style="html=1;align=left;spacing=0;spacingLeft=10;verticalAlign=middle;strokeColor=none;fillColor=none;whiteSpace=wrap;" vertex="1" parent="IdVh_bVHWKS3vvw1Y_2o-83">
          <mxGeometry y="28" width="310" height="16" as="geometry" />
        </mxCell>
        <mxCell id="IdVh_bVHWKS3vvw1Y_2o-248" value="name&lt;span style=&quot;white-space: pre;&quot;&gt;&#x9;&lt;span style=&quot;white-space: pre;&quot;&gt;&#x9;&lt;/span&gt;&lt;/span&gt;varchar(100)&lt;span style=&quot;white-space: pre;&quot;&gt;&#x9;&lt;/span&gt;UNIQUE, NOT NULL" style="html=1;align=left;spacing=0;spacingLeft=10;verticalAlign=middle;strokeColor=none;fillColor=none;whiteSpace=wrap;" vertex="1" parent="IdVh_bVHWKS3vvw1Y_2o-83">
          <mxGeometry y="44" width="310" height="16" as="geometry" />
        </mxCell>
        <mxCell id="IdVh_bVHWKS3vvw1Y_2o-249" value="description&lt;span style=&quot;white-space: pre;&quot;&gt;&#x9;&lt;/span&gt;text" style="html=1;align=left;spacing=0;spacingLeft=10;verticalAlign=middle;strokeColor=none;fillColor=none;whiteSpace=wrap;" vertex="1" parent="IdVh_bVHWKS3vvw1Y_2o-83">
          <mxGeometry y="60" width="310" height="16" as="geometry" />
        </mxCell>
        <mxCell id="IdVh_bVHWKS3vvw1Y_2o-254" value="Users_ID&lt;span style=&quot;white-space: pre;&quot;&gt;&lt;span style=&quot;white-space: pre;&quot;&gt;&#x9;&lt;/span&gt;&lt;span style=&quot;white-space: pre;&quot;&gt;&#x9;&lt;/span&gt;&lt;/span&gt;int&lt;span style=&quot;white-space: pre;&quot;&gt;&#x9;&lt;span style=&quot;white-space: pre;&quot;&gt;&#x9;&lt;/span&gt;&lt;span style=&quot;white-space: pre;&quot;&gt;&#x9;&lt;/span&gt;F&lt;/span&gt;K" style="html=1;align=left;spacing=0;spacingLeft=10;verticalAlign=middle;strokeColor=none;fillColor=none;whiteSpace=wrap;" vertex="1" parent="IdVh_bVHWKS3vvw1Y_2o-83">
          <mxGeometry y="76" width="310" height="16" as="geometry" />
        </mxCell>
        <mxCell id="IdVh_bVHWKS3vvw1Y_2o-87" value="" style="html=1;align=left;spacing=0;spacingLeft=10;verticalAlign=middle;strokeColor=none;fillColor=none;whiteSpace=wrap;" vertex="1" parent="IdVh_bVHWKS3vvw1Y_2o-83">
          <mxGeometry y="92" width="310" height="10" as="geometry" />
        </mxCell>
        <mxCell id="IdVh_bVHWKS3vvw1Y_2o-88" value="" style="fontStyle=1;align=center;verticalAlign=middle;childLayout=stackLayout;horizontal=1;horizontalStack=0;resizeParent=1;resizeParentMax=0;resizeLast=0;marginBottom=0;" vertex="1" parent="1">
          <mxGeometry x="620" y="390" width="340" height="118" as="geometry" />
        </mxCell>
        <mxCell id="IdVh_bVHWKS3vvw1Y_2o-89" value="&lt;strong&gt;Media&lt;/strong&gt;" style="html=1;align=center;spacing=0;verticalAlign=middle;strokeColor=none;fillColor=none;whiteSpace=wrap;fontStyle=1;" vertex="1" parent="IdVh_bVHWKS3vvw1Y_2o-88">
          <mxGeometry width="340" height="20" as="geometry" />
        </mxCell>
        <mxCell id="IdVh_bVHWKS3vvw1Y_2o-90" value="" style="line;strokeWidth=0.25;fillColor=none;align=left;verticalAlign=middle;spacingTop=-1;spacingLeft=3;spacingRight=3;rotatable=0;labelPosition=right;points=[];portConstraint=eastwest;" vertex="1" parent="IdVh_bVHWKS3vvw1Y_2o-88">
          <mxGeometry y="20" width="340" height="8" as="geometry" />
        </mxCell>
        <mxCell id="IdVh_bVHWKS3vvw1Y_2o-240" value="ID&lt;span style=&quot;white-space: pre;&quot;&gt;&#x9;&lt;span style=&quot;white-space: pre;&quot;&gt;&#x9;&lt;/span&gt;&lt;span style=&quot;white-space: pre;&quot;&gt;&#x9;&lt;/span&gt;&lt;/span&gt;int&lt;span style=&quot;white-space: pre;&quot;&gt;&#x9;&lt;span style=&quot;white-space: pre;&quot;&gt;&#x9;&lt;/span&gt;&lt;span style=&quot;white-space: pre;&quot;&gt;&#x9;&lt;/span&gt;&lt;/span&gt;PK" style="html=1;align=left;spacing=0;spacingLeft=10;verticalAlign=middle;strokeColor=none;fillColor=none;whiteSpace=wrap;" vertex="1" parent="IdVh_bVHWKS3vvw1Y_2o-88">
          <mxGeometry y="28" width="340" height="16" as="geometry" />
        </mxCell>
        <mxCell id="IdVh_bVHWKS3vvw1Y_2o-237" value="file_URL&lt;span style=&quot;white-space: pre;&quot;&gt;&#x9;&lt;span style=&quot;white-space: pre;&quot;&gt;&#x9;&lt;/span&gt;&lt;/span&gt;varchar(200)&lt;span style=&quot;white-space: pre;&quot;&gt;&#x9;&lt;/span&gt;NOT NULL" style="html=1;align=left;spacing=0;spacingLeft=10;verticalAlign=middle;strokeColor=none;fillColor=none;whiteSpace=wrap;" vertex="1" parent="IdVh_bVHWKS3vvw1Y_2o-88">
          <mxGeometry y="44" width="340" height="16" as="geometry" />
        </mxCell>
        <mxCell id="IdVh_bVHWKS3vvw1Y_2o-238" value="file_Type&lt;span style=&quot;white-space: pre;&quot;&gt;&lt;span style=&quot;white-space: pre;&quot;&gt;&#x9;&lt;span style=&quot;white-space: pre;&quot;&gt;&#x9;&lt;/span&gt;&lt;/span&gt;&lt;/span&gt;varchar(200)&lt;span style=&quot;white-space: pre;&quot;&gt;&#x9;&lt;/span&gt;NOT NULL" style="html=1;align=left;spacing=0;spacingLeft=10;verticalAlign=middle;strokeColor=none;fillColor=none;whiteSpace=wrap;" vertex="1" parent="IdVh_bVHWKS3vvw1Y_2o-88">
          <mxGeometry y="60" width="340" height="16" as="geometry" />
        </mxCell>
        <mxCell id="IdVh_bVHWKS3vvw1Y_2o-239" value="created_Date&lt;span style=&quot;white-space: pre;&quot;&gt;&#x9;&lt;/span&gt;datetime&lt;span style=&quot;white-space: pre;&quot;&gt;&#x9;&lt;/span&gt;&lt;span style=&quot;white-space: pre;&quot;&gt;&#x9;&lt;/span&gt;DEFAULT NOW(), NOT NULL" style="html=1;align=left;spacing=0;spacingLeft=10;verticalAlign=middle;strokeColor=none;fillColor=none;whiteSpace=wrap;" vertex="1" parent="IdVh_bVHWKS3vvw1Y_2o-88">
          <mxGeometry y="76" width="340" height="16" as="geometry" />
        </mxCell>
        <mxCell id="IdVh_bVHWKS3vvw1Y_2o-217" value="Posts_ID&lt;span style=&quot;white-space: pre;&quot;&gt;&#x9;&lt;span style=&quot;white-space: pre;&quot;&gt;&#x9;&lt;/span&gt;&lt;/span&gt;int&lt;span style=&quot;white-space: pre;&quot;&gt;&#x9;&lt;span style=&quot;white-space: pre;&quot;&gt;&#x9;&lt;/span&gt;&lt;span style=&quot;white-space: pre;&quot;&gt;&#x9;&lt;/span&gt;&lt;/span&gt;FK" style="html=1;align=left;spacing=0;spacingLeft=10;verticalAlign=middle;strokeColor=none;fillColor=none;whiteSpace=wrap;" vertex="1" parent="IdVh_bVHWKS3vvw1Y_2o-88">
          <mxGeometry y="92" width="340" height="16" as="geometry" />
        </mxCell>
        <mxCell id="IdVh_bVHWKS3vvw1Y_2o-92" value="" style="html=1;align=left;spacing=0;spacingLeft=10;verticalAlign=middle;strokeColor=none;fillColor=none;whiteSpace=wrap;" vertex="1" parent="IdVh_bVHWKS3vvw1Y_2o-88">
          <mxGeometry y="108" width="340" height="10" as="geometry" />
        </mxCell>
        <mxCell id="IdVh_bVHWKS3vvw1Y_2o-96" value="" style="fontStyle=1;align=center;verticalAlign=middle;childLayout=stackLayout;horizontal=1;horizontalStack=0;resizeParent=1;resizeParentMax=0;resizeLast=0;marginBottom=0;" vertex="1" parent="1">
          <mxGeometry x="190" y="39.83" width="140" height="70" as="geometry" />
        </mxCell>
        <mxCell id="IdVh_bVHWKS3vvw1Y_2o-97" value="Users_Followings" style="html=1;align=center;spacing=0;verticalAlign=middle;strokeColor=none;fillColor=none;whiteSpace=wrap;fontStyle=1;" vertex="1" parent="IdVh_bVHWKS3vvw1Y_2o-96">
          <mxGeometry width="140" height="20" as="geometry" />
        </mxCell>
        <mxCell id="IdVh_bVHWKS3vvw1Y_2o-98" value="" style="line;strokeWidth=0.25;fillColor=none;align=left;verticalAlign=middle;spacingTop=-1;spacingLeft=3;spacingRight=3;rotatable=0;labelPosition=right;points=[];portConstraint=eastwest;" vertex="1" parent="IdVh_bVHWKS3vvw1Y_2o-96">
          <mxGeometry y="20" width="140" height="8" as="geometry" />
        </mxCell>
        <mxCell id="IdVh_bVHWKS3vvw1Y_2o-99" value="Users_ID&lt;span style=&quot;white-space: pre;&quot;&gt;&#x9;&lt;/span&gt;&lt;span style=&quot;white-space: pre;&quot;&gt;&#x9;&lt;/span&gt;int&lt;span style=&quot;white-space: pre;&quot;&gt;&#x9;&lt;/span&gt;FK" style="html=1;align=left;spacing=0;spacingLeft=10;verticalAlign=middle;strokeColor=none;fillColor=none;whiteSpace=wrap;" vertex="1" parent="IdVh_bVHWKS3vvw1Y_2o-96">
          <mxGeometry y="28" width="140" height="16" as="geometry" />
        </mxCell>
        <mxCell id="IdVh_bVHWKS3vvw1Y_2o-109" value="Followings_ID&lt;span style=&quot;white-space: pre;&quot;&gt;&#x9;&lt;/span&gt;int&lt;span style=&quot;white-space: pre;&quot;&gt;&#x9;&lt;/span&gt;FK" style="html=1;align=left;spacing=0;spacingLeft=10;verticalAlign=middle;strokeColor=none;fillColor=none;whiteSpace=wrap;" vertex="1" parent="IdVh_bVHWKS3vvw1Y_2o-96">
          <mxGeometry y="44" width="140" height="16" as="geometry" />
        </mxCell>
        <mxCell id="IdVh_bVHWKS3vvw1Y_2o-100" value="" style="html=1;align=left;spacing=0;spacingLeft=10;verticalAlign=middle;strokeColor=none;fillColor=none;whiteSpace=wrap;" vertex="1" parent="IdVh_bVHWKS3vvw1Y_2o-96">
          <mxGeometry y="60" width="140" height="10" as="geometry" />
        </mxCell>
        <mxCell id="IdVh_bVHWKS3vvw1Y_2o-101" value="" style="verticalAlign=bottom;html=1;endArrow=none;edgeStyle=orthogonalEdgeStyle;strokeWidth=2;rounded=0;entryX=0;entryY=0.25;entryDx=0;entryDy=0;exitX=1;exitY=0;exitDx=0;exitDy=0;" edge="1" parent="1" source="IdVh_bVHWKS3vvw1Y_2o-76" target="IdVh_bVHWKS3vvw1Y_2o-99">
          <mxGeometry relative="1" as="geometry">
            <mxPoint x="130" y="66.83" as="sourcePoint" />
            <mxPoint x="290" y="66.53999999999999" as="targetPoint" />
          </mxGeometry>
        </mxCell>
        <mxCell id="IdVh_bVHWKS3vvw1Y_2o-102" value="1" style="resizable=0;html=1;align=left;verticalAlign=top;labelBackgroundColor=none;fontSize=10" connectable="0" vertex="1" parent="IdVh_bVHWKS3vvw1Y_2o-101">
          <mxGeometry x="-1" relative="1" as="geometry">
            <mxPoint y="-8" as="offset" />
          </mxGeometry>
        </mxCell>
        <mxCell id="IdVh_bVHWKS3vvw1Y_2o-103" value="0..*" style="resizable=0;html=1;align=right;verticalAlign=top;labelBackgroundColor=none;fontSize=10" connectable="0" vertex="1" parent="IdVh_bVHWKS3vvw1Y_2o-101">
          <mxGeometry x="1" relative="1" as="geometry" />
        </mxCell>
        <mxCell id="IdVh_bVHWKS3vvw1Y_2o-104" value="" style="verticalAlign=bottom;html=1;endArrow=none;edgeStyle=orthogonalEdgeStyle;strokeWidth=2;rounded=0;entryX=1;entryY=0;entryDx=0;entryDy=0;exitX=0;exitY=0.25;exitDx=0;exitDy=0;" edge="1" parent="1" source="IdVh_bVHWKS3vvw1Y_2o-5" target="IdVh_bVHWKS3vvw1Y_2o-99">
          <mxGeometry relative="1" as="geometry">
            <mxPoint x="320" y="104" as="sourcePoint" />
            <mxPoint x="480" y="104" as="targetPoint" />
          </mxGeometry>
        </mxCell>
        <mxCell id="IdVh_bVHWKS3vvw1Y_2o-105" value="1" style="resizable=0;html=1;align=left;verticalAlign=top;labelBackgroundColor=none;fontSize=10" connectable="0" vertex="1" parent="IdVh_bVHWKS3vvw1Y_2o-104">
          <mxGeometry x="-1" relative="1" as="geometry">
            <mxPoint x="-10" y="-22" as="offset" />
          </mxGeometry>
        </mxCell>
        <mxCell id="IdVh_bVHWKS3vvw1Y_2o-106" value="0..*" style="resizable=0;html=1;align=right;verticalAlign=top;labelBackgroundColor=none;fontSize=10" connectable="0" vertex="1" parent="IdVh_bVHWKS3vvw1Y_2o-104">
          <mxGeometry x="1" relative="1" as="geometry">
            <mxPoint x="20" y="-38" as="offset" />
          </mxGeometry>
        </mxCell>
        <mxCell id="IdVh_bVHWKS3vvw1Y_2o-110" value="" style="fontStyle=1;align=center;verticalAlign=middle;childLayout=stackLayout;horizontal=1;horizontalStack=0;resizeParent=1;resizeParentMax=0;resizeLast=0;marginBottom=0;" vertex="1" parent="1">
          <mxGeometry x="570" y="-240" width="270" height="102" as="geometry" />
        </mxCell>
        <mxCell id="IdVh_bVHWKS3vvw1Y_2o-111" value="Friendships" style="html=1;align=center;spacing=0;verticalAlign=middle;strokeColor=none;fillColor=none;whiteSpace=wrap;fontStyle=1;" vertex="1" parent="IdVh_bVHWKS3vvw1Y_2o-110">
          <mxGeometry width="270" height="20" as="geometry" />
        </mxCell>
        <mxCell id="IdVh_bVHWKS3vvw1Y_2o-112" value="" style="line;strokeWidth=0.25;fillColor=none;align=left;verticalAlign=middle;spacingTop=-1;spacingLeft=3;spacingRight=3;rotatable=0;labelPosition=right;points=[];portConstraint=eastwest;" vertex="1" parent="IdVh_bVHWKS3vvw1Y_2o-110">
          <mxGeometry y="20" width="270" height="8" as="geometry" />
        </mxCell>
        <mxCell id="IdVh_bVHWKS3vvw1Y_2o-113" value="ID&lt;span style=&quot;white-space: pre;&quot;&gt;&#x9;&lt;span style=&quot;white-space: pre;&quot;&gt;&#x9;&lt;/span&gt;&lt;span style=&quot;white-space: pre;&quot;&gt;&#x9;&lt;/span&gt;&lt;/span&gt;int&lt;span style=&quot;white-space: pre;&quot;&gt;&#x9;&lt;span style=&quot;white-space: pre;&quot;&gt;&#x9;&lt;/span&gt;&lt;span style=&quot;white-space: pre;&quot;&gt;&#x9;&lt;/span&gt;&lt;/span&gt;PK" style="html=1;align=left;spacing=0;spacingLeft=10;verticalAlign=middle;strokeColor=none;fillColor=none;whiteSpace=wrap;" vertex="1" parent="IdVh_bVHWKS3vvw1Y_2o-110">
          <mxGeometry y="28" width="270" height="16" as="geometry" />
        </mxCell>
        <mxCell id="IdVh_bVHWKS3vvw1Y_2o-266" value="status&lt;span style=&quot;white-space: pre;&quot;&gt;&#x9;&lt;span style=&quot;white-space: pre;&quot;&gt;&#x9;&lt;/span&gt;&lt;/span&gt;varchar(30)&lt;span style=&quot;white-space: pre;&quot;&gt;&#x9;&lt;/span&gt;NOT NULL" style="html=1;align=left;spacing=0;spacingLeft=10;verticalAlign=middle;strokeColor=none;fillColor=none;whiteSpace=wrap;" vertex="1" parent="IdVh_bVHWKS3vvw1Y_2o-110">
          <mxGeometry y="44" width="270" height="16" as="geometry" />
        </mxCell>
        <mxCell id="IdVh_bVHWKS3vvw1Y_2o-267" value="requested_at&lt;span style=&quot;white-space: pre;&quot;&gt;&#x9;&lt;/span&gt;datetime&lt;span style=&quot;white-space: pre;&quot;&gt;&#x9;&lt;span style=&quot;white-space: pre;&quot;&gt;&#x9;&lt;/span&gt;&lt;/span&gt;NOT NULL" style="html=1;align=left;spacing=0;spacingLeft=10;verticalAlign=middle;strokeColor=none;fillColor=none;whiteSpace=wrap;" vertex="1" parent="IdVh_bVHWKS3vvw1Y_2o-110">
          <mxGeometry y="60" width="270" height="16" as="geometry" />
        </mxCell>
        <mxCell id="IdVh_bVHWKS3vvw1Y_2o-268" value="updated_at&lt;span style=&quot;white-space: pre;&quot;&gt;&#x9;&lt;/span&gt;datetime&lt;span style=&quot;white-space: pre;&quot;&gt;&#x9;&lt;/span&gt;" style="html=1;align=left;spacing=0;spacingLeft=10;verticalAlign=middle;strokeColor=none;fillColor=none;whiteSpace=wrap;" vertex="1" parent="IdVh_bVHWKS3vvw1Y_2o-110">
          <mxGeometry y="76" width="270" height="16" as="geometry" />
        </mxCell>
        <mxCell id="IdVh_bVHWKS3vvw1Y_2o-114" value="" style="html=1;align=left;spacing=0;spacingLeft=10;verticalAlign=middle;strokeColor=none;fillColor=none;whiteSpace=wrap;" vertex="1" parent="IdVh_bVHWKS3vvw1Y_2o-110">
          <mxGeometry y="92" width="270" height="10" as="geometry" />
        </mxCell>
        <mxCell id="IdVh_bVHWKS3vvw1Y_2o-115" value="" style="fontStyle=1;align=center;verticalAlign=middle;childLayout=stackLayout;horizontal=1;horizontalStack=0;resizeParent=1;resizeParentMax=0;resizeLast=0;marginBottom=0;" vertex="1" parent="1">
          <mxGeometry x="470" y="-90" width="170" height="70" as="geometry" />
        </mxCell>
        <mxCell id="IdVh_bVHWKS3vvw1Y_2o-116" value="Users_Friendships" style="html=1;align=center;spacing=0;verticalAlign=middle;strokeColor=none;fillColor=none;whiteSpace=wrap;fontStyle=1;" vertex="1" parent="IdVh_bVHWKS3vvw1Y_2o-115">
          <mxGeometry width="170" height="20" as="geometry" />
        </mxCell>
        <mxCell id="IdVh_bVHWKS3vvw1Y_2o-117" value="" style="line;strokeWidth=0.25;fillColor=none;align=left;verticalAlign=middle;spacingTop=-1;spacingLeft=3;spacingRight=3;rotatable=0;labelPosition=right;points=[];portConstraint=eastwest;" vertex="1" parent="IdVh_bVHWKS3vvw1Y_2o-115">
          <mxGeometry y="20" width="170" height="8" as="geometry" />
        </mxCell>
        <mxCell id="IdVh_bVHWKS3vvw1Y_2o-118" value="Users_ID&lt;span style=&quot;white-space: pre;&quot;&gt;&#x9;&lt;span style=&quot;white-space: pre;&quot;&gt;&#x9;&lt;/span&gt;&lt;span style=&quot;white-space: pre;&quot;&gt;&#x9;&lt;/span&gt;&lt;/span&gt;int&lt;span style=&quot;white-space: pre;&quot;&gt;&#x9;&lt;/span&gt;FK" style="html=1;align=left;spacing=0;spacingLeft=10;verticalAlign=middle;strokeColor=none;fillColor=none;whiteSpace=wrap;" vertex="1" parent="IdVh_bVHWKS3vvw1Y_2o-115">
          <mxGeometry y="28" width="170" height="16" as="geometry" />
        </mxCell>
        <mxCell id="IdVh_bVHWKS3vvw1Y_2o-121" value="Friendships_ID&lt;span style=&quot;white-space: pre;&quot;&gt;&#x9;&lt;/span&gt;int&lt;span style=&quot;white-space: pre;&quot;&gt;&#x9;&lt;/span&gt;FK" style="html=1;align=left;spacing=0;spacingLeft=10;verticalAlign=middle;strokeColor=none;fillColor=none;whiteSpace=wrap;" vertex="1" parent="IdVh_bVHWKS3vvw1Y_2o-115">
          <mxGeometry y="44" width="170" height="16" as="geometry" />
        </mxCell>
        <mxCell id="IdVh_bVHWKS3vvw1Y_2o-119" value="" style="html=1;align=left;spacing=0;spacingLeft=10;verticalAlign=middle;strokeColor=none;fillColor=none;whiteSpace=wrap;" vertex="1" parent="IdVh_bVHWKS3vvw1Y_2o-115">
          <mxGeometry y="60" width="170" height="10" as="geometry" />
        </mxCell>
        <mxCell id="IdVh_bVHWKS3vvw1Y_2o-122" value="" style="verticalAlign=bottom;html=1;endArrow=none;edgeStyle=orthogonalEdgeStyle;strokeWidth=2;rounded=0;exitX=0.55;exitY=-0.021;exitDx=0;exitDy=0;exitPerimeter=0;entryX=0.464;entryY=0.941;entryDx=0;entryDy=0;entryPerimeter=0;" edge="1" parent="1" source="IdVh_bVHWKS3vvw1Y_2o-2" target="IdVh_bVHWKS3vvw1Y_2o-119">
          <mxGeometry relative="1" as="geometry">
            <mxPoint x="280" y="-40" as="sourcePoint" />
            <mxPoint x="440" y="-40" as="targetPoint" />
          </mxGeometry>
        </mxCell>
        <mxCell id="IdVh_bVHWKS3vvw1Y_2o-123" value="1" style="resizable=0;html=1;align=left;verticalAlign=top;labelBackgroundColor=none;fontSize=10" connectable="0" vertex="1" parent="IdVh_bVHWKS3vvw1Y_2o-122">
          <mxGeometry x="-1" relative="1" as="geometry">
            <mxPoint x="5" y="-18" as="offset" />
          </mxGeometry>
        </mxCell>
        <mxCell id="IdVh_bVHWKS3vvw1Y_2o-124" value="0..*" style="resizable=0;html=1;align=right;verticalAlign=top;labelBackgroundColor=none;fontSize=10" connectable="0" vertex="1" parent="IdVh_bVHWKS3vvw1Y_2o-122">
          <mxGeometry x="1" relative="1" as="geometry">
            <mxPoint x="21" as="offset" />
          </mxGeometry>
        </mxCell>
        <mxCell id="IdVh_bVHWKS3vvw1Y_2o-125" value="" style="verticalAlign=bottom;html=1;endArrow=none;edgeStyle=orthogonalEdgeStyle;strokeWidth=2;rounded=0;entryX=0.449;entryY=-0.019;entryDx=0;entryDy=0;entryPerimeter=0;" edge="1" parent="1" target="IdVh_bVHWKS3vvw1Y_2o-116">
          <mxGeometry relative="1" as="geometry">
            <mxPoint x="570" y="-210" as="sourcePoint" />
            <mxPoint x="494" y="-130" as="targetPoint" />
            <Array as="points">
              <mxPoint x="570" y="-210" />
              <mxPoint x="546" y="-210" />
            </Array>
          </mxGeometry>
        </mxCell>
        <mxCell id="IdVh_bVHWKS3vvw1Y_2o-126" value="1" style="resizable=0;html=1;align=left;verticalAlign=top;labelBackgroundColor=none;fontSize=10" connectable="0" vertex="1" parent="IdVh_bVHWKS3vvw1Y_2o-125">
          <mxGeometry x="-1" relative="1" as="geometry">
            <mxPoint x="-10" y="-20" as="offset" />
          </mxGeometry>
        </mxCell>
        <mxCell id="IdVh_bVHWKS3vvw1Y_2o-127" value="0..*" style="resizable=0;html=1;align=right;verticalAlign=top;labelBackgroundColor=none;fontSize=10" connectable="0" vertex="1" parent="IdVh_bVHWKS3vvw1Y_2o-125">
          <mxGeometry x="1" relative="1" as="geometry">
            <mxPoint x="23" y="-20" as="offset" />
          </mxGeometry>
        </mxCell>
        <mxCell id="IdVh_bVHWKS3vvw1Y_2o-128" value="" style="fontStyle=1;align=center;verticalAlign=middle;childLayout=stackLayout;horizontal=1;horizontalStack=0;resizeParent=1;resizeParentMax=0;resizeLast=0;marginBottom=0;" vertex="1" parent="1">
          <mxGeometry x="620" y="290" width="140" height="70" as="geometry" />
        </mxCell>
        <mxCell id="IdVh_bVHWKS3vvw1Y_2o-129" value="&lt;strong&gt;Posts_Hashtags&lt;/strong&gt;" style="html=1;align=center;spacing=0;verticalAlign=middle;strokeColor=none;fillColor=none;whiteSpace=wrap;fontStyle=1;" vertex="1" parent="IdVh_bVHWKS3vvw1Y_2o-128">
          <mxGeometry width="140" height="20" as="geometry" />
        </mxCell>
        <mxCell id="IdVh_bVHWKS3vvw1Y_2o-130" value="" style="line;strokeWidth=0.25;fillColor=none;align=left;verticalAlign=middle;spacingTop=-1;spacingLeft=3;spacingRight=3;rotatable=0;labelPosition=right;points=[];portConstraint=eastwest;" vertex="1" parent="IdVh_bVHWKS3vvw1Y_2o-128">
          <mxGeometry y="20" width="140" height="8" as="geometry" />
        </mxCell>
        <mxCell id="IdVh_bVHWKS3vvw1Y_2o-131" value="Posts_ID&lt;span style=&quot;white-space: pre;&quot;&gt;&#x9;&lt;/span&gt;&lt;span style=&quot;white-space: pre;&quot;&gt;&#x9;&lt;/span&gt;int&lt;span style=&quot;white-space: pre;&quot;&gt;&#x9;&lt;/span&gt;FK" style="html=1;align=left;spacing=0;spacingLeft=10;verticalAlign=middle;strokeColor=none;fillColor=none;whiteSpace=wrap;" vertex="1" parent="IdVh_bVHWKS3vvw1Y_2o-128">
          <mxGeometry y="28" width="140" height="16" as="geometry" />
        </mxCell>
        <mxCell id="IdVh_bVHWKS3vvw1Y_2o-133" value="Hashtags_ID&lt;span style=&quot;white-space: pre;&quot;&gt;&#x9;&lt;/span&gt;int&lt;span style=&quot;white-space: pre;&quot;&gt;&#x9;&lt;/span&gt;FK" style="html=1;align=left;spacing=0;spacingLeft=10;verticalAlign=middle;strokeColor=none;fillColor=none;whiteSpace=wrap;" vertex="1" parent="IdVh_bVHWKS3vvw1Y_2o-128">
          <mxGeometry y="44" width="140" height="16" as="geometry" />
        </mxCell>
        <mxCell id="IdVh_bVHWKS3vvw1Y_2o-132" value="" style="html=1;align=left;spacing=0;spacingLeft=10;verticalAlign=middle;strokeColor=none;fillColor=none;whiteSpace=wrap;" vertex="1" parent="IdVh_bVHWKS3vvw1Y_2o-128">
          <mxGeometry y="60" width="140" height="10" as="geometry" />
        </mxCell>
        <mxCell id="IdVh_bVHWKS3vvw1Y_2o-134" value="" style="verticalAlign=bottom;html=1;endArrow=none;edgeStyle=orthogonalEdgeStyle;strokeWidth=2;rounded=0;entryX=0;entryY=0.75;entryDx=0;entryDy=0;" edge="1" parent="1" target="IdVh_bVHWKS3vvw1Y_2o-131">
          <mxGeometry relative="1" as="geometry">
            <mxPoint x="470" y="400" as="sourcePoint" />
            <mxPoint x="620" y="290" as="targetPoint" />
            <Array as="points">
              <mxPoint x="570" y="400" />
              <mxPoint x="570" y="330" />
            </Array>
          </mxGeometry>
        </mxCell>
        <mxCell id="IdVh_bVHWKS3vvw1Y_2o-135" value="1" style="resizable=0;html=1;align=left;verticalAlign=top;labelBackgroundColor=none;fontSize=10" connectable="0" vertex="1" parent="IdVh_bVHWKS3vvw1Y_2o-134">
          <mxGeometry x="-1" relative="1" as="geometry">
            <mxPoint y="-4" as="offset" />
          </mxGeometry>
        </mxCell>
        <mxCell id="IdVh_bVHWKS3vvw1Y_2o-136" value="0..*" style="resizable=0;html=1;align=right;verticalAlign=top;labelBackgroundColor=none;fontSize=10" connectable="0" vertex="1" parent="IdVh_bVHWKS3vvw1Y_2o-134">
          <mxGeometry x="1" relative="1" as="geometry">
            <mxPoint y="-20" as="offset" />
          </mxGeometry>
        </mxCell>
        <mxCell id="IdVh_bVHWKS3vvw1Y_2o-137" value="" style="verticalAlign=bottom;html=1;endArrow=none;edgeStyle=orthogonalEdgeStyle;strokeWidth=2;rounded=0;entryX=1;entryY=0.413;entryDx=0;entryDy=0;entryPerimeter=0;exitX=0.001;exitY=0.337;exitDx=0;exitDy=0;exitPerimeter=0;" edge="1" parent="1" source="IdVh_bVHWKS3vvw1Y_2o-59" target="IdVh_bVHWKS3vvw1Y_2o-131">
          <mxGeometry relative="1" as="geometry">
            <mxPoint x="840" y="300" as="sourcePoint" />
            <mxPoint x="770" y="356.65999999999997" as="targetPoint" />
          </mxGeometry>
        </mxCell>
        <mxCell id="IdVh_bVHWKS3vvw1Y_2o-139" value="0..*" style="resizable=0;html=1;align=right;verticalAlign=top;labelBackgroundColor=none;fontSize=10" connectable="0" vertex="1" parent="IdVh_bVHWKS3vvw1Y_2o-137">
          <mxGeometry x="1" relative="1" as="geometry">
            <mxPoint x="20" y="-19" as="offset" />
          </mxGeometry>
        </mxCell>
        <mxCell id="IdVh_bVHWKS3vvw1Y_2o-223" value="1" style="resizable=0;html=1;align=left;verticalAlign=top;labelBackgroundColor=none;fontSize=10" connectable="0" vertex="1" parent="IdVh_bVHWKS3vvw1Y_2o-137">
          <mxGeometry x="-1" relative="1" as="geometry">
            <mxPoint x="-10" y="-23" as="offset" />
          </mxGeometry>
        </mxCell>
        <mxCell id="IdVh_bVHWKS3vvw1Y_2o-143" value="" style="verticalAlign=bottom;html=1;endArrow=none;edgeStyle=orthogonalEdgeStyle;strokeWidth=2;rounded=0;entryX=1;entryY=1;entryDx=0;entryDy=0;" edge="1" parent="1" target="IdVh_bVHWKS3vvw1Y_2o-13">
          <mxGeometry relative="1" as="geometry">
            <mxPoint x="550" y="184" as="sourcePoint" />
            <mxPoint x="360" y="339.97999999999985" as="targetPoint" />
            <Array as="points">
              <mxPoint x="550" y="184" />
              <mxPoint x="550" y="360" />
            </Array>
          </mxGeometry>
        </mxCell>
        <mxCell id="IdVh_bVHWKS3vvw1Y_2o-144" value="1" style="resizable=0;html=1;align=left;verticalAlign=top;labelBackgroundColor=none;fontSize=10" connectable="0" vertex="1" parent="IdVh_bVHWKS3vvw1Y_2o-143">
          <mxGeometry x="-1" relative="1" as="geometry">
            <mxPoint y="-4" as="offset" />
          </mxGeometry>
        </mxCell>
        <mxCell id="IdVh_bVHWKS3vvw1Y_2o-145" value="0..*" style="resizable=0;html=1;align=right;verticalAlign=top;labelBackgroundColor=none;fontSize=10" connectable="0" vertex="1" parent="IdVh_bVHWKS3vvw1Y_2o-143">
          <mxGeometry x="1" relative="1" as="geometry">
            <mxPoint x="21" y="-28" as="offset" />
          </mxGeometry>
        </mxCell>
        <mxCell id="IdVh_bVHWKS3vvw1Y_2o-146" value="" style="verticalAlign=bottom;html=1;endArrow=none;edgeStyle=orthogonalEdgeStyle;strokeWidth=2;rounded=0;exitX=0.903;exitY=1.133;exitDx=0;exitDy=0;exitPerimeter=0;" edge="1" parent="1" source="IdVh_bVHWKS3vvw1Y_2o-16">
          <mxGeometry relative="1" as="geometry">
            <mxPoint x="470" y="430" as="sourcePoint" />
            <mxPoint x="620" y="470" as="targetPoint" />
            <Array as="points">
              <mxPoint x="435" y="470" />
              <mxPoint x="620" y="470" />
            </Array>
          </mxGeometry>
        </mxCell>
        <mxCell id="IdVh_bVHWKS3vvw1Y_2o-147" value="1" style="resizable=0;html=1;align=left;verticalAlign=top;labelBackgroundColor=none;fontSize=10" connectable="0" vertex="1" parent="IdVh_bVHWKS3vvw1Y_2o-146">
          <mxGeometry x="-1" relative="1" as="geometry">
            <mxPoint x="-10" as="offset" />
          </mxGeometry>
        </mxCell>
        <mxCell id="IdVh_bVHWKS3vvw1Y_2o-148" value="0..*" style="resizable=0;html=1;align=right;verticalAlign=top;labelBackgroundColor=none;fontSize=10" connectable="0" vertex="1" parent="IdVh_bVHWKS3vvw1Y_2o-146">
          <mxGeometry x="1" relative="1" as="geometry">
            <mxPoint y="-20" as="offset" />
          </mxGeometry>
        </mxCell>
        <mxCell id="IdVh_bVHWKS3vvw1Y_2o-158" value="" style="fontStyle=1;align=center;verticalAlign=middle;childLayout=stackLayout;horizontal=1;horizontalStack=0;resizeParent=1;resizeParentMax=0;resizeLast=0;marginBottom=0;" vertex="1" parent="1">
          <mxGeometry x="710" y="-120" width="310" height="102" as="geometry" />
        </mxCell>
        <mxCell id="IdVh_bVHWKS3vvw1Y_2o-159" value="&lt;strong&gt;Users_Groups&lt;/strong&gt;" style="html=1;align=center;spacing=0;verticalAlign=middle;strokeColor=none;fillColor=none;whiteSpace=wrap;fontStyle=1;" vertex="1" parent="IdVh_bVHWKS3vvw1Y_2o-158">
          <mxGeometry width="310" height="20" as="geometry" />
        </mxCell>
        <mxCell id="IdVh_bVHWKS3vvw1Y_2o-160" value="" style="line;strokeWidth=0.25;fillColor=none;align=left;verticalAlign=middle;spacingTop=-1;spacingLeft=3;spacingRight=3;rotatable=0;labelPosition=right;points=[];portConstraint=eastwest;" vertex="1" parent="IdVh_bVHWKS3vvw1Y_2o-158">
          <mxGeometry y="20" width="310" height="8" as="geometry" />
        </mxCell>
        <mxCell id="IdVh_bVHWKS3vvw1Y_2o-161" value="Users_ID&lt;span style=&quot;white-space: pre;&quot;&gt;&#x9;&lt;span style=&quot;white-space: pre;&quot;&gt;&#x9;&lt;/span&gt;&lt;/span&gt;int&lt;span style=&quot;white-space: pre;&quot;&gt;&#x9;&lt;span style=&quot;white-space: pre;&quot;&gt;&#x9;&lt;/span&gt;&lt;span style=&quot;white-space: pre;&quot;&gt;&#x9;&lt;/span&gt;&lt;/span&gt;FK" style="html=1;align=left;spacing=0;spacingLeft=10;verticalAlign=middle;strokeColor=none;fillColor=none;whiteSpace=wrap;" vertex="1" parent="IdVh_bVHWKS3vvw1Y_2o-158">
          <mxGeometry y="28" width="310" height="16" as="geometry" />
        </mxCell>
        <mxCell id="IdVh_bVHWKS3vvw1Y_2o-163" value="Groups_ID&lt;span style=&quot;white-space: pre;&quot;&gt;&lt;span style=&quot;white-space: pre;&quot;&gt;&#x9;&lt;/span&gt;&lt;/span&gt;int&lt;span style=&quot;white-space: pre;&quot;&gt;&#x9;&lt;span style=&quot;white-space: pre;&quot;&gt;&#x9;&lt;/span&gt;&lt;span style=&quot;white-space: pre;&quot;&gt;&#x9;&lt;/span&gt;&lt;/span&gt;FK" style="html=1;align=left;spacing=0;spacingLeft=10;verticalAlign=middle;strokeColor=none;fillColor=none;whiteSpace=wrap;" vertex="1" parent="IdVh_bVHWKS3vvw1Y_2o-158">
          <mxGeometry y="44" width="310" height="16" as="geometry" />
        </mxCell>
        <mxCell id="IdVh_bVHWKS3vvw1Y_2o-269" value="joined_at&lt;span style=&quot;white-space: pre;&quot;&gt;&#x9;&lt;/span&gt;&lt;span style=&quot;white-space: pre;&quot;&gt;&#x9;&lt;/span&gt;datetime&lt;span style=&quot;white-space: pre;&quot;&gt;&#x9;&lt;span style=&quot;white-space: pre;&quot;&gt;&#x9;&lt;/span&gt;&lt;/span&gt;NOT NULL" style="html=1;align=left;spacing=0;spacingLeft=10;verticalAlign=middle;strokeColor=none;fillColor=none;whiteSpace=wrap;" vertex="1" parent="IdVh_bVHWKS3vvw1Y_2o-158">
          <mxGeometry y="60" width="310" height="16" as="geometry" />
        </mxCell>
        <mxCell id="IdVh_bVHWKS3vvw1Y_2o-270" value="role&lt;span style=&quot;white-space: pre;&quot;&gt;&#x9;&lt;/span&gt;&lt;span style=&quot;white-space: pre;&quot;&gt;&#x9;&lt;/span&gt;&lt;span style=&quot;white-space: pre;&quot;&gt;&#x9;&lt;/span&gt;varchar(30)&lt;span style=&quot;white-space: pre;&quot;&gt;&#x9;&lt;/span&gt;DEFAULT &#39;member&#39;" style="html=1;align=left;spacing=0;spacingLeft=10;verticalAlign=middle;strokeColor=none;fillColor=none;whiteSpace=wrap;" vertex="1" parent="IdVh_bVHWKS3vvw1Y_2o-158">
          <mxGeometry y="76" width="310" height="16" as="geometry" />
        </mxCell>
        <mxCell id="IdVh_bVHWKS3vvw1Y_2o-162" value="" style="html=1;align=left;spacing=0;spacingLeft=10;verticalAlign=middle;strokeColor=none;fillColor=none;whiteSpace=wrap;" vertex="1" parent="IdVh_bVHWKS3vvw1Y_2o-158">
          <mxGeometry y="92" width="310" height="10" as="geometry" />
        </mxCell>
        <mxCell id="IdVh_bVHWKS3vvw1Y_2o-164" value="" style="verticalAlign=bottom;html=1;endArrow=none;edgeStyle=orthogonalEdgeStyle;strokeWidth=2;rounded=0;entryX=0;entryY=0.25;entryDx=0;entryDy=0;" edge="1" parent="1" target="IdVh_bVHWKS3vvw1Y_2o-163">
          <mxGeometry relative="1" as="geometry">
            <mxPoint x="700" y="50" as="sourcePoint" />
            <mxPoint x="860" y="130" as="targetPoint" />
            <Array as="points">
              <mxPoint x="700" y="50" />
              <mxPoint x="700" y="-72" />
            </Array>
          </mxGeometry>
        </mxCell>
        <mxCell id="IdVh_bVHWKS3vvw1Y_2o-165" value="1" style="resizable=0;html=1;align=left;verticalAlign=top;labelBackgroundColor=none;fontSize=10" connectable="0" vertex="1" parent="IdVh_bVHWKS3vvw1Y_2o-164">
          <mxGeometry x="-1" relative="1" as="geometry">
            <mxPoint y="-20" as="offset" />
          </mxGeometry>
        </mxCell>
        <mxCell id="IdVh_bVHWKS3vvw1Y_2o-166" value="0..*" style="resizable=0;html=1;align=right;verticalAlign=top;labelBackgroundColor=none;fontSize=10" connectable="0" vertex="1" parent="IdVh_bVHWKS3vvw1Y_2o-164">
          <mxGeometry x="1" relative="1" as="geometry">
            <mxPoint x="-10" y="-28" as="offset" />
          </mxGeometry>
        </mxCell>
        <mxCell id="IdVh_bVHWKS3vvw1Y_2o-167" value="" style="verticalAlign=bottom;html=1;endArrow=none;edgeStyle=orthogonalEdgeStyle;strokeWidth=2;rounded=0;entryX=1;entryY=0.5;entryDx=0;entryDy=0;exitX=0.452;exitY=0.01;exitDx=0;exitDy=0;exitPerimeter=0;" edge="1" parent="1" source="IdVh_bVHWKS3vvw1Y_2o-84" target="IdVh_bVHWKS3vvw1Y_2o-161">
          <mxGeometry relative="1" as="geometry">
            <mxPoint x="920" y="-20" as="sourcePoint" />
            <mxPoint x="1000" y="140" as="targetPoint" />
            <Array as="points">
              <mxPoint x="1090" y="-84" />
            </Array>
          </mxGeometry>
        </mxCell>
        <mxCell id="IdVh_bVHWKS3vvw1Y_2o-168" value="1" style="resizable=0;html=1;align=left;verticalAlign=top;labelBackgroundColor=none;fontSize=10" connectable="0" vertex="1" parent="IdVh_bVHWKS3vvw1Y_2o-167">
          <mxGeometry x="-1" relative="1" as="geometry">
            <mxPoint x="-10" y="-26" as="offset" />
          </mxGeometry>
        </mxCell>
        <mxCell id="IdVh_bVHWKS3vvw1Y_2o-169" value="0..*" style="resizable=0;html=1;align=right;verticalAlign=top;labelBackgroundColor=none;fontSize=10" connectable="0" vertex="1" parent="IdVh_bVHWKS3vvw1Y_2o-167">
          <mxGeometry x="1" relative="1" as="geometry">
            <mxPoint x="20" y="-26" as="offset" />
          </mxGeometry>
        </mxCell>
        <mxCell id="IdVh_bVHWKS3vvw1Y_2o-170" value="" style="verticalAlign=bottom;html=1;endArrow=none;edgeStyle=orthogonalEdgeStyle;strokeWidth=2;rounded=0;" edge="1" parent="1">
          <mxGeometry relative="1" as="geometry">
            <mxPoint x="790" y="168" as="sourcePoint" />
            <mxPoint x="920" y="170" as="targetPoint" />
            <Array as="points">
              <mxPoint x="790" y="170" />
              <mxPoint x="920" y="170" />
            </Array>
          </mxGeometry>
        </mxCell>
        <mxCell id="IdVh_bVHWKS3vvw1Y_2o-171" value="1" style="resizable=0;html=1;align=left;verticalAlign=top;labelBackgroundColor=none;fontSize=10" connectable="0" vertex="1" parent="IdVh_bVHWKS3vvw1Y_2o-170">
          <mxGeometry x="-1" relative="1" as="geometry" />
        </mxCell>
        <mxCell id="IdVh_bVHWKS3vvw1Y_2o-172" value="0..*" style="resizable=0;html=1;align=right;verticalAlign=top;labelBackgroundColor=none;fontSize=10" connectable="0" vertex="1" parent="IdVh_bVHWKS3vvw1Y_2o-170">
          <mxGeometry x="1" relative="1" as="geometry" />
        </mxCell>
        <mxCell id="IdVh_bVHWKS3vvw1Y_2o-173" value="" style="fontStyle=1;align=center;verticalAlign=middle;childLayout=stackLayout;horizontal=1;horizontalStack=0;resizeParent=1;resizeParentMax=0;resizeLast=0;marginBottom=0;" vertex="1" parent="1">
          <mxGeometry x="130" y="-150" width="240" height="102" as="geometry" />
        </mxCell>
        <mxCell id="IdVh_bVHWKS3vvw1Y_2o-174" value="&lt;strong&gt;User_Locations&lt;/strong&gt;" style="html=1;align=center;spacing=0;verticalAlign=middle;strokeColor=none;fillColor=none;whiteSpace=wrap;fontStyle=1;" vertex="1" parent="IdVh_bVHWKS3vvw1Y_2o-173">
          <mxGeometry width="240" height="20" as="geometry" />
        </mxCell>
        <mxCell id="IdVh_bVHWKS3vvw1Y_2o-175" value="" style="line;strokeWidth=0.25;fillColor=none;align=left;verticalAlign=middle;spacingTop=-1;spacingLeft=3;spacingRight=3;rotatable=0;labelPosition=right;points=[];portConstraint=eastwest;" vertex="1" parent="IdVh_bVHWKS3vvw1Y_2o-173">
          <mxGeometry y="20" width="240" height="8" as="geometry" />
        </mxCell>
        <mxCell id="IdVh_bVHWKS3vvw1Y_2o-176" value="Users_ID&lt;span style=&quot;white-space: pre;&quot;&gt;&#x9;&lt;/span&gt;&lt;span style=&quot;white-space: pre;&quot;&gt;&#x9;&lt;/span&gt;int&lt;span style=&quot;white-space: pre;&quot;&gt;&#x9;&lt;/span&gt;FK" style="html=1;align=left;spacing=0;spacingLeft=10;verticalAlign=middle;strokeColor=none;fillColor=none;whiteSpace=wrap;" vertex="1" parent="IdVh_bVHWKS3vvw1Y_2o-173">
          <mxGeometry y="28" width="240" height="16" as="geometry" />
        </mxCell>
        <mxCell id="IdVh_bVHWKS3vvw1Y_2o-178" value="Locations_ID&lt;span style=&quot;white-space: pre;&quot;&gt;&#x9;&lt;/span&gt;int&lt;span style=&quot;white-space: pre;&quot;&gt;&#x9;&lt;/span&gt;FK" style="html=1;align=left;spacing=0;spacingLeft=10;verticalAlign=middle;strokeColor=none;fillColor=none;whiteSpace=wrap;" vertex="1" parent="IdVh_bVHWKS3vvw1Y_2o-173">
          <mxGeometry y="44" width="240" height="16" as="geometry" />
        </mxCell>
        <mxCell id="IdVh_bVHWKS3vvw1Y_2o-273" value="timestamp&lt;span style=&quot;white-space: pre;&quot;&gt;&#x9;&lt;/span&gt;datetime&lt;span style=&quot;white-space: pre;&quot;&gt;&#x9;&lt;/span&gt;int&lt;span style=&quot;white-space: pre;&quot;&gt;&#x9;&lt;/span&gt;FK" style="html=1;align=left;spacing=0;spacingLeft=10;verticalAlign=middle;strokeColor=none;fillColor=none;whiteSpace=wrap;" vertex="1" parent="IdVh_bVHWKS3vvw1Y_2o-173">
          <mxGeometry y="60" width="240" height="16" as="geometry" />
        </mxCell>
        <mxCell id="IdVh_bVHWKS3vvw1Y_2o-274" value="is_Current &lt;span style=&quot;white-space: pre;&quot;&gt;&#x9;&lt;/span&gt;boolean&lt;span style=&quot;white-space: pre;&quot;&gt;&#x9;&lt;/span&gt;DEFAULT FALSE" style="html=1;align=left;spacing=0;spacingLeft=10;verticalAlign=middle;strokeColor=none;fillColor=none;whiteSpace=wrap;" vertex="1" parent="IdVh_bVHWKS3vvw1Y_2o-173">
          <mxGeometry y="76" width="240" height="16" as="geometry" />
        </mxCell>
        <mxCell id="IdVh_bVHWKS3vvw1Y_2o-177" value="" style="html=1;align=left;spacing=0;spacingLeft=10;verticalAlign=middle;strokeColor=none;fillColor=none;whiteSpace=wrap;" vertex="1" parent="IdVh_bVHWKS3vvw1Y_2o-173">
          <mxGeometry y="92" width="240" height="10" as="geometry" />
        </mxCell>
        <mxCell id="IdVh_bVHWKS3vvw1Y_2o-180" value="" style="verticalAlign=bottom;html=1;endArrow=none;edgeStyle=orthogonalEdgeStyle;strokeWidth=2;rounded=0;exitX=0;exitY=0.5;exitDx=0;exitDy=0;entryX=1;entryY=0.25;entryDx=0;entryDy=0;" edge="1" parent="1" source="IdVh_bVHWKS3vvw1Y_2o-2" target="IdVh_bVHWKS3vvw1Y_2o-174">
          <mxGeometry relative="1" as="geometry">
            <mxPoint x="340" y="-210" as="sourcePoint" />
            <mxPoint x="500" y="-210" as="targetPoint" />
            <Array as="points">
              <mxPoint x="400" y="60" />
              <mxPoint x="400" y="-110" />
              <mxPoint x="370" y="-110" />
            </Array>
          </mxGeometry>
        </mxCell>
        <mxCell id="IdVh_bVHWKS3vvw1Y_2o-181" value="1" style="resizable=0;html=1;align=left;verticalAlign=top;labelBackgroundColor=none;fontSize=10" connectable="0" vertex="1" parent="IdVh_bVHWKS3vvw1Y_2o-180">
          <mxGeometry x="-1" relative="1" as="geometry">
            <mxPoint x="-10" y="-20" as="offset" />
          </mxGeometry>
        </mxCell>
        <mxCell id="IdVh_bVHWKS3vvw1Y_2o-182" value="0..*" style="resizable=0;html=1;align=right;verticalAlign=top;labelBackgroundColor=none;fontSize=10" connectable="0" vertex="1" parent="IdVh_bVHWKS3vvw1Y_2o-180">
          <mxGeometry x="1" relative="1" as="geometry">
            <mxPoint x="20" y="15" as="offset" />
          </mxGeometry>
        </mxCell>
        <mxCell id="IdVh_bVHWKS3vvw1Y_2o-183" value="" style="verticalAlign=bottom;html=1;endArrow=none;edgeStyle=orthogonalEdgeStyle;strokeWidth=2;rounded=0;exitX=0.998;exitY=0.471;exitDx=0;exitDy=0;exitPerimeter=0;entryX=0.183;entryY=0.022;entryDx=0;entryDy=0;entryPerimeter=0;" edge="1" parent="1" source="IdVh_bVHWKS3vvw1Y_2o-63" target="IdVh_bVHWKS3vvw1Y_2o-174">
          <mxGeometry relative="1" as="geometry">
            <mxPoint x="190" y="-180" as="sourcePoint" />
            <mxPoint x="330" y="-183.34" as="targetPoint" />
          </mxGeometry>
        </mxCell>
        <mxCell id="IdVh_bVHWKS3vvw1Y_2o-184" value="1" style="resizable=0;html=1;align=left;verticalAlign=top;labelBackgroundColor=none;fontSize=10" connectable="0" vertex="1" parent="IdVh_bVHWKS3vvw1Y_2o-183">
          <mxGeometry x="-1" relative="1" as="geometry" />
        </mxCell>
        <mxCell id="IdVh_bVHWKS3vvw1Y_2o-185" value="0..*" style="resizable=0;html=1;align=right;verticalAlign=top;labelBackgroundColor=none;fontSize=10" connectable="0" vertex="1" parent="IdVh_bVHWKS3vvw1Y_2o-183">
          <mxGeometry x="1" relative="1" as="geometry">
            <mxPoint x="24" y="-20" as="offset" />
          </mxGeometry>
        </mxCell>
        <mxCell id="IdVh_bVHWKS3vvw1Y_2o-189" value="" style="verticalAlign=bottom;html=1;endArrow=none;edgeStyle=orthogonalEdgeStyle;strokeWidth=2;rounded=0;exitX=0.221;exitY=1.012;exitDx=0;exitDy=0;exitPerimeter=0;entryX=1;entryY=0;entryDx=0;entryDy=0;" edge="1" parent="1" source="IdVh_bVHWKS3vvw1Y_2o-6" target="IdVh_bVHWKS3vvw1Y_2o-214">
          <mxGeometry relative="1" as="geometry">
            <mxPoint x="511.5999999999999" y="104.0000000000002" as="sourcePoint" />
            <mxPoint x="510" y="270" as="targetPoint" />
            <Array as="points">
              <mxPoint x="510" y="190" />
              <mxPoint x="510" y="190" />
              <mxPoint x="510" y="270" />
            </Array>
          </mxGeometry>
        </mxCell>
        <mxCell id="IdVh_bVHWKS3vvw1Y_2o-190" value="1" style="resizable=0;html=1;align=left;verticalAlign=top;labelBackgroundColor=none;fontSize=10" connectable="0" vertex="1" parent="IdVh_bVHWKS3vvw1Y_2o-189">
          <mxGeometry x="-1" relative="1" as="geometry">
            <mxPoint x="-12" y="-4" as="offset" />
          </mxGeometry>
        </mxCell>
        <mxCell id="IdVh_bVHWKS3vvw1Y_2o-191" value="0..*" style="resizable=0;html=1;align=right;verticalAlign=top;labelBackgroundColor=none;fontSize=10" connectable="0" vertex="1" parent="IdVh_bVHWKS3vvw1Y_2o-189">
          <mxGeometry x="1" relative="1" as="geometry">
            <mxPoint x="20" as="offset" />
          </mxGeometry>
        </mxCell>
        <mxCell id="IdVh_bVHWKS3vvw1Y_2o-193" value="" style="verticalAlign=bottom;html=1;endArrow=none;edgeStyle=orthogonalEdgeStyle;strokeWidth=2;rounded=0;entryX=0.5;entryY=1;entryDx=0;entryDy=0;" edge="1" parent="1" target="IdVh_bVHWKS3vvw1Y_2o-55">
          <mxGeometry relative="1" as="geometry">
            <mxPoint x="110" y="430" as="sourcePoint" />
            <mxPoint x="400" y="264" as="targetPoint" />
            <Array as="points">
              <mxPoint x="110" y="430" />
              <mxPoint x="-480" y="430" />
            </Array>
          </mxGeometry>
        </mxCell>
        <mxCell id="IdVh_bVHWKS3vvw1Y_2o-194" value="1" style="resizable=0;html=1;align=left;verticalAlign=top;labelBackgroundColor=none;fontSize=10" connectable="0" vertex="1" parent="IdVh_bVHWKS3vvw1Y_2o-193">
          <mxGeometry x="-1" relative="1" as="geometry">
            <mxPoint x="-20" as="offset" />
          </mxGeometry>
        </mxCell>
        <mxCell id="IdVh_bVHWKS3vvw1Y_2o-195" value="0..*" style="resizable=0;html=1;align=right;verticalAlign=top;labelBackgroundColor=none;fontSize=10" connectable="0" vertex="1" parent="IdVh_bVHWKS3vvw1Y_2o-193">
          <mxGeometry x="1" relative="1" as="geometry">
            <mxPoint x="20" as="offset" />
          </mxGeometry>
        </mxCell>
        <mxCell id="IdVh_bVHWKS3vvw1Y_2o-196" value="" style="verticalAlign=bottom;html=1;endArrow=none;edgeStyle=orthogonalEdgeStyle;strokeWidth=2;rounded=0;entryX=0.5;entryY=0;entryDx=0;entryDy=0;" edge="1" parent="1" target="IdVh_bVHWKS3vvw1Y_2o-52">
          <mxGeometry relative="1" as="geometry">
            <mxPoint x="430" y="120" as="sourcePoint" />
            <mxPoint x="420" y="150" as="targetPoint" />
            <Array as="points">
              <mxPoint x="420" y="120" />
              <mxPoint x="420" y="140" />
              <mxPoint x="-480" y="140" />
            </Array>
          </mxGeometry>
        </mxCell>
        <mxCell id="IdVh_bVHWKS3vvw1Y_2o-197" value="1" style="resizable=0;html=1;align=left;verticalAlign=top;labelBackgroundColor=none;fontSize=10" connectable="0" vertex="1" parent="IdVh_bVHWKS3vvw1Y_2o-196">
          <mxGeometry x="-1" relative="1" as="geometry">
            <mxPoint x="-20" y="-10" as="offset" />
          </mxGeometry>
        </mxCell>
        <mxCell id="IdVh_bVHWKS3vvw1Y_2o-198" value="0..*" style="resizable=0;html=1;align=right;verticalAlign=top;labelBackgroundColor=none;fontSize=10" connectable="0" vertex="1" parent="IdVh_bVHWKS3vvw1Y_2o-196">
          <mxGeometry x="1" relative="1" as="geometry">
            <mxPoint x="20" y="-20" as="offset" />
          </mxGeometry>
        </mxCell>
        <mxCell id="IdVh_bVHWKS3vvw1Y_2o-199" value="" style="verticalAlign=bottom;html=1;endArrow=none;edgeStyle=orthogonalEdgeStyle;strokeWidth=2;rounded=0;entryX=0.473;entryY=-0.023;entryDx=0;entryDy=0;entryPerimeter=0;" edge="1" parent="1" target="IdVh_bVHWKS3vvw1Y_2o-30">
          <mxGeometry relative="1" as="geometry">
            <mxPoint x="430" y="170" as="sourcePoint" />
            <mxPoint x="550" y="180" as="targetPoint" />
            <Array as="points">
              <mxPoint x="-99" y="170" />
            </Array>
          </mxGeometry>
        </mxCell>
        <mxCell id="IdVh_bVHWKS3vvw1Y_2o-200" value="1" style="resizable=0;html=1;align=left;verticalAlign=top;labelBackgroundColor=none;fontSize=10" connectable="0" vertex="1" parent="IdVh_bVHWKS3vvw1Y_2o-199">
          <mxGeometry x="-1" relative="1" as="geometry">
            <mxPoint x="-16" as="offset" />
          </mxGeometry>
        </mxCell>
        <mxCell id="IdVh_bVHWKS3vvw1Y_2o-201" value="0..*" style="resizable=0;html=1;align=right;verticalAlign=top;labelBackgroundColor=none;fontSize=10" connectable="0" vertex="1" parent="IdVh_bVHWKS3vvw1Y_2o-199">
          <mxGeometry x="1" relative="1" as="geometry">
            <mxPoint x="23" y="-20" as="offset" />
          </mxGeometry>
        </mxCell>
        <mxCell id="IdVh_bVHWKS3vvw1Y_2o-203" value="" style="verticalAlign=bottom;html=1;endArrow=none;edgeStyle=orthogonalEdgeStyle;strokeWidth=2;rounded=0;exitX=0;exitY=0.5;exitDx=0;exitDy=0;entryX=0.171;entryY=0.993;entryDx=0;entryDy=0;entryPerimeter=0;" edge="1" parent="1" source="IdVh_bVHWKS3vvw1Y_2o-15" target="IdVh_bVHWKS3vvw1Y_2o-33">
          <mxGeometry relative="1" as="geometry">
            <mxPoint x="260" y="310" as="sourcePoint" />
            <mxPoint x="420" y="310" as="targetPoint" />
          </mxGeometry>
        </mxCell>
        <mxCell id="IdVh_bVHWKS3vvw1Y_2o-204" value="1" style="resizable=0;html=1;align=left;verticalAlign=top;labelBackgroundColor=none;fontSize=10" connectable="0" vertex="1" parent="IdVh_bVHWKS3vvw1Y_2o-203">
          <mxGeometry x="-1" relative="1" as="geometry">
            <mxPoint x="-10" y="-26" as="offset" />
          </mxGeometry>
        </mxCell>
        <mxCell id="IdVh_bVHWKS3vvw1Y_2o-205" value="0..*" style="resizable=0;html=1;align=right;verticalAlign=top;labelBackgroundColor=none;fontSize=10" connectable="0" vertex="1" parent="IdVh_bVHWKS3vvw1Y_2o-203">
          <mxGeometry x="1" relative="1" as="geometry">
            <mxPoint x="23" y="-6" as="offset" />
          </mxGeometry>
        </mxCell>
        <mxCell id="IdVh_bVHWKS3vvw1Y_2o-250" value="" style="verticalAlign=bottom;html=1;endArrow=none;edgeStyle=orthogonalEdgeStyle;strokeWidth=2;rounded=0;exitX=1.001;exitY=0.62;exitDx=0;exitDy=0;entryX=0;entryY=0;entryDx=0;entryDy=0;exitPerimeter=0;" edge="1" parent="1" source="IdVh_bVHWKS3vvw1Y_2o-226" target="IdVh_bVHWKS3vvw1Y_2o-249">
          <mxGeometry relative="1" as="geometry">
            <mxPoint x="1010" y="130" as="sourcePoint" />
            <mxPoint x="1170" y="130" as="targetPoint" />
            <Array as="points">
              <mxPoint x="870" y="136" />
              <mxPoint x="870" y="70" />
            </Array>
          </mxGeometry>
        </mxCell>
        <mxCell id="IdVh_bVHWKS3vvw1Y_2o-251" value="1" style="resizable=0;html=1;align=left;verticalAlign=top;labelBackgroundColor=none;fontSize=10" connectable="0" vertex="1" parent="IdVh_bVHWKS3vvw1Y_2o-250">
          <mxGeometry x="-1" relative="1" as="geometry">
            <mxPoint y="-26" as="offset" />
          </mxGeometry>
        </mxCell>
        <mxCell id="IdVh_bVHWKS3vvw1Y_2o-252" value="0..*" style="resizable=0;html=1;align=right;verticalAlign=top;labelBackgroundColor=none;fontSize=10" connectable="0" vertex="1" parent="IdVh_bVHWKS3vvw1Y_2o-250">
          <mxGeometry x="1" relative="1" as="geometry" />
        </mxCell>
      </root>
    </mxGraphModel>
  </diagram>
</mxfile>
